<svg xmlns="http://www.w3.org/2000/svg" xmlns:xlink="http://www.w3.org/1999/xlink" width="1000" zoomAndPan="magnify" viewBox="0 0 750 149.999998" height="200" preserveAspectRatio="xMidYMid meet" version="1.0"><defs><g/></defs><path fill="#43a047" d="M 52.875 25.339844 C 25.496094 25.339844 3.304688 47.535156 3.304688 74.910156 C 3.304688 102.289062 25.5 124.480469 52.875 124.480469 C 80.25 124.480469 102.445312 102.289062 102.445312 74.910156 C 102.445312 47.535156 80.25 25.339844 52.875 25.339844 Z M 41.351562 104.652344 L 41.316406 104.621094 L 41.289062 104.652344 L 18.175781 80.859375 L 29.789062 69.023438 L 41.320312 80.894531 L 76.019531 45.171875 L 87.574219 57.066406 Z M 41.351562 104.652344 " fill-opacity="1" fill-rule="nonzero"/><g fill="#000000" fill-opacity="1"><g transform="translate(117.77909, 101.998381)"><g><path d="M 33.15625 -37.765625 C 33.007812 -39.554688 32.34375 -40.953125 31.15625 -41.953125 C 29.96875 -42.953125 28.164062 -43.453125 25.75 -43.453125 C 24.207031 -43.453125 22.945312 -43.269531 21.96875 -42.90625 C 21 -42.539062 20.28125 -42.039062 19.8125 -41.40625 C 19.351562 -40.78125 19.113281 -40.066406 19.09375 -39.265625 C 19.0625 -38.609375 19.179688 -38.015625 19.453125 -37.484375 C 19.734375 -36.953125 20.175781 -36.476562 20.78125 -36.0625 C 21.394531 -35.644531 22.175781 -35.265625 23.125 -34.921875 C 24.070312 -34.578125 25.195312 -34.273438 26.5 -34.015625 L 31 -33.046875 C 34.039062 -32.398438 36.644531 -31.550781 38.8125 -30.5 C 40.976562 -29.445312 42.75 -28.207031 44.125 -26.78125 C 45.5 -25.363281 46.507812 -23.769531 47.15625 -22 C 47.8125 -20.226562 48.148438 -18.296875 48.171875 -16.203125 C 48.148438 -12.585938 47.242188 -9.523438 45.453125 -7.015625 C 43.671875 -4.515625 41.117188 -2.613281 37.796875 -1.3125 C 34.484375 -0.0078125 30.503906 0.640625 25.859375 0.640625 C 21.078125 0.640625 16.910156 -0.0625 13.359375 -1.46875 C 9.816406 -2.882812 7.066406 -5.0625 5.109375 -8 C 3.148438 -10.945312 2.160156 -14.71875 2.140625 -19.3125 L 16.3125 -19.3125 C 16.394531 -17.632812 16.8125 -16.222656 17.5625 -15.078125 C 18.3125 -13.929688 19.367188 -13.0625 20.734375 -12.46875 C 22.109375 -11.882812 23.742188 -11.59375 25.640625 -11.59375 C 27.234375 -11.59375 28.566406 -11.785156 29.640625 -12.171875 C 30.710938 -12.566406 31.523438 -13.113281 32.078125 -13.8125 C 32.628906 -14.507812 32.914062 -15.304688 32.9375 -16.203125 C 32.914062 -17.046875 32.640625 -17.78125 32.109375 -18.40625 C 31.585938 -19.039062 30.726562 -19.613281 29.53125 -20.125 C 28.332031 -20.632812 26.710938 -21.113281 24.671875 -21.5625 L 19.203125 -22.75 C 14.335938 -23.800781 10.503906 -25.5625 7.703125 -28.03125 C 4.910156 -30.507812 3.523438 -33.894531 3.546875 -38.1875 C 3.523438 -41.675781 4.457031 -44.726562 6.34375 -47.34375 C 8.226562 -49.96875 10.847656 -52.015625 14.203125 -53.484375 C 17.554688 -54.953125 21.40625 -55.6875 25.75 -55.6875 C 30.1875 -55.6875 34.019531 -54.941406 37.25 -53.453125 C 40.488281 -51.972656 42.988281 -49.882812 44.75 -47.1875 C 46.507812 -44.5 47.398438 -41.359375 47.421875 -37.765625 Z M 33.15625 -37.765625 "/></g></g></g><g fill="#000000" fill-opacity="1"><g transform="translate(168.097753, 101.998381)"><g><path d="M 23.5 0.75 C 19.09375 0.75 15.300781 -0.09375 12.125 -1.78125 C 8.957031 -3.46875 6.519531 -5.898438 4.8125 -9.078125 C 3.101562 -12.253906 2.25 -16.054688 2.25 -20.484375 C 2.25 -24.742188 3.109375 -28.460938 4.828125 -31.640625 C 6.546875 -34.828125 8.96875 -37.304688 12.09375 -39.078125 C 15.226562 -40.847656 18.921875 -41.734375 23.171875 -41.734375 C 26.285156 -41.734375 29.101562 -41.25 31.625 -40.28125 C 34.144531 -39.320312 36.296875 -37.925781 38.078125 -36.09375 C 39.867188 -34.257812 41.25 -32.035156 42.21875 -29.421875 C 43.1875 -26.804688 43.671875 -23.863281 43.671875 -20.59375 L 43.671875 -17.171875 L 6.859375 -17.171875 L 6.859375 -25.3125 L 30.046875 -25.3125 C 30.023438 -26.5 29.722656 -27.539062 29.140625 -28.4375 C 28.554688 -29.34375 27.773438 -30.050781 26.796875 -30.5625 C 25.828125 -31.070312 24.726562 -31.328125 23.5 -31.328125 C 22.300781 -31.328125 21.195312 -31.070312 20.1875 -30.5625 C 19.1875 -30.050781 18.382812 -29.347656 17.78125 -28.453125 C 17.1875 -27.554688 16.875 -26.507812 16.84375 -25.3125 L 16.84375 -16.515625 C 16.84375 -15.191406 17.117188 -14.007812 17.671875 -12.96875 C 18.222656 -11.9375 19.019531 -11.125 20.0625 -10.53125 C 21.101562 -9.945312 22.351562 -9.65625 23.8125 -9.65625 C 24.832031 -9.65625 25.765625 -9.796875 26.609375 -10.078125 C 27.460938 -10.367188 28.191406 -10.785156 28.796875 -11.328125 C 29.410156 -11.878906 29.859375 -12.535156 30.140625 -13.296875 L 43.671875 -13.296875 C 43.203125 -10.441406 42.097656 -7.960938 40.359375 -5.859375 C 38.628906 -3.753906 36.335938 -2.125 33.484375 -0.96875 C 30.628906 0.175781 27.300781 0.75 23.5 0.75 Z M 23.5 0.75 "/></g></g></g><g fill="#000000" fill-opacity="1"><g transform="translate(214.017559, 101.998381)"><g><path d="M 3.75 0 L 3.75 -41.203125 L 18.125 -41.203125 L 18.125 -33.359375 L 18.5625 -33.359375 C 19.3125 -36.265625 20.503906 -38.382812 22.140625 -39.71875 C 23.773438 -41.0625 25.691406 -41.734375 27.890625 -41.734375 C 28.535156 -41.734375 29.175781 -41.679688 29.8125 -41.578125 C 30.445312 -41.484375 31.0625 -41.347656 31.65625 -41.171875 L 31.65625 -28.53125 C 30.914062 -28.789062 30.007812 -28.984375 28.9375 -29.109375 C 27.863281 -29.234375 26.941406 -29.296875 26.171875 -29.296875 C 24.722656 -29.296875 23.421875 -28.96875 22.265625 -28.3125 C 21.117188 -27.65625 20.210938 -26.738281 19.546875 -25.5625 C 18.890625 -24.394531 18.5625 -23.023438 18.5625 -21.453125 L 18.5625 0 Z M 3.75 0 "/></g></g></g><g fill="#000000" fill-opacity="1"><g transform="translate(246.740781, 101.998381)"><g><path d="M 45.28125 -41.203125 L 31.4375 0 L 14.265625 0 L 0.421875 -41.203125 L 15.984375 -41.203125 L 22.640625 -13.953125 L 23.0625 -13.953125 L 29.71875 -41.203125 Z M 45.28125 -41.203125 "/></g></g></g><g fill="#000000" fill-opacity="1"><g transform="translate(292.446015, 101.998381)"><g><path d="M 23.5 0.75 C 19.09375 0.75 15.300781 -0.09375 12.125 -1.78125 C 8.957031 -3.46875 6.519531 -5.898438 4.8125 -9.078125 C 3.101562 -12.253906 2.25 -16.054688 2.25 -20.484375 C 2.25 -24.742188 3.109375 -28.460938 4.828125 -31.640625 C 6.546875 -34.828125 8.96875 -37.304688 12.09375 -39.078125 C 15.226562 -40.847656 18.921875 -41.734375 23.171875 -41.734375 C 26.285156 -41.734375 29.101562 -41.25 31.625 -40.28125 C 34.144531 -39.320312 36.296875 -37.925781 38.078125 -36.09375 C 39.867188 -34.257812 41.25 -32.035156 42.21875 -29.421875 C 43.1875 -26.804688 43.671875 -23.863281 43.671875 -20.59375 L 43.671875 -17.171875 L 6.859375 -17.171875 L 6.859375 -25.3125 L 30.046875 -25.3125 C 30.023438 -26.5 29.722656 -27.539062 29.140625 -28.4375 C 28.554688 -29.34375 27.773438 -30.050781 26.796875 -30.5625 C 25.828125 -31.070312 24.726562 -31.328125 23.5 -31.328125 C 22.300781 -31.328125 21.195312 -31.070312 20.1875 -30.5625 C 19.1875 -30.050781 18.382812 -29.347656 17.78125 -28.453125 C 17.1875 -27.554688 16.875 -26.507812 16.84375 -25.3125 L 16.84375 -16.515625 C 16.84375 -15.191406 17.117188 -14.007812 17.671875 -12.96875 C 18.222656 -11.9375 19.019531 -11.125 20.0625 -10.53125 C 21.101562 -9.945312 22.351562 -9.65625 23.8125 -9.65625 C 24.832031 -9.65625 25.765625 -9.796875 26.609375 -10.078125 C 27.460938 -10.367188 28.191406 -10.785156 28.796875 -11.328125 C 29.410156 -11.878906 29.859375 -12.535156 30.140625 -13.296875 L 43.671875 -13.296875 C 43.203125 -10.441406 42.097656 -7.960938 40.359375 -5.859375 C 38.628906 -3.753906 36.335938 -2.125 33.484375 -0.96875 C 30.628906 0.175781 27.300781 0.75 23.5 0.75 Z M 23.5 0.75 "/></g></g></g><g fill="#000000" fill-opacity="1"><g transform="translate(338.365821, 101.998381)"><g><path d="M 3.75 0 L 3.75 -41.203125 L 18.125 -41.203125 L 18.125 -33.359375 L 18.5625 -33.359375 C 19.3125 -36.265625 20.503906 -38.382812 22.140625 -39.71875 C 23.773438 -41.0625 25.691406 -41.734375 27.890625 -41.734375 C 28.535156 -41.734375 29.175781 -41.679688 29.8125 -41.578125 C 30.445312 -41.484375 31.0625 -41.347656 31.65625 -41.171875 L 31.65625 -28.53125 C 30.914062 -28.789062 30.007812 -28.984375 28.9375 -29.109375 C 27.863281 -29.234375 26.941406 -29.296875 26.171875 -29.296875 C 24.722656 -29.296875 23.421875 -28.96875 22.265625 -28.3125 C 21.117188 -27.65625 20.210938 -26.738281 19.546875 -25.5625 C 18.890625 -24.394531 18.5625 -23.023438 18.5625 -21.453125 L 18.5625 0 Z M 3.75 0 "/></g></g></g><g fill="#000000" fill-opacity="1"><g transform="translate(371.089031, 101.998381)"><g><path d="M 18.5625 -54.9375 L 18.5625 0 L 3.75 0 L 3.75 -54.9375 Z M 18.5625 -54.9375 "/></g></g></g><g fill="#000000" fill-opacity="1"><g transform="translate(393.405198, 101.998381)"><g><path d="M 23.5 0.75 C 19.09375 0.75 15.300781 -0.09375 12.125 -1.78125 C 8.957031 -3.46875 6.519531 -5.898438 4.8125 -9.078125 C 3.101562 -12.253906 2.25 -16.054688 2.25 -20.484375 C 2.25 -24.742188 3.109375 -28.460938 4.828125 -31.640625 C 6.546875 -34.828125 8.96875 -37.304688 12.09375 -39.078125 C 15.226562 -40.847656 18.921875 -41.734375 23.171875 -41.734375 C 26.285156 -41.734375 29.101562 -41.25 31.625 -40.28125 C 34.144531 -39.320312 36.296875 -37.925781 38.078125 -36.09375 C 39.867188 -34.257812 41.25 -32.035156 42.21875 -29.421875 C 43.1875 -26.804688 43.671875 -23.863281 43.671875 -20.59375 L 43.671875 -17.171875 L 6.859375 -17.171875 L 6.859375 -25.3125 L 30.046875 -25.3125 C 30.023438 -26.5 29.722656 -27.539062 29.140625 -28.4375 C 28.554688 -29.34375 27.773438 -30.050781 26.796875 -30.5625 C 25.828125 -31.070312 24.726562 -31.328125 23.5 -31.328125 C 22.300781 -31.328125 21.195312 -31.070312 20.1875 -30.5625 C 19.1875 -30.050781 18.382812 -29.347656 17.78125 -28.453125 C 17.1875 -27.554688 16.875 -26.507812 16.84375 -25.3125 L 16.84375 -16.515625 C 16.84375 -15.191406 17.117188 -14.007812 17.671875 -12.96875 C 18.222656 -11.9375 19.019531 -11.125 20.0625 -10.53125 C 21.101562 -9.945312 22.351562 -9.65625 23.8125 -9.65625 C 24.832031 -9.65625 25.765625 -9.796875 26.609375 -10.078125 C 27.460938 -10.367188 28.191406 -10.785156 28.796875 -11.328125 C 29.410156 -11.878906 29.859375 -12.535156 30.140625 -13.296875 L 43.671875 -13.296875 C 43.203125 -10.441406 42.097656 -7.960938 40.359375 -5.859375 C 38.628906 -3.753906 36.335938 -2.125 33.484375 -0.96875 C 30.628906 0.175781 27.300781 0.75 23.5 0.75 Z M 23.5 0.75 "/></g></g></g><g fill="#000000" fill-opacity="1"><g transform="translate(439.325017, 101.998381)"><g><path d="M 41.40625 -27.78125 L 27.78125 -27.78125 C 27.71875 -28.625 27.425781 -29.347656 26.90625 -29.953125 C 26.382812 -30.566406 25.71875 -31.035156 24.90625 -31.359375 C 24.09375 -31.691406 23.191406 -31.859375 22.203125 -31.859375 C 20.929688 -31.859375 19.835938 -31.625 18.921875 -31.15625 C 18.015625 -30.695312 17.570312 -30.039062 17.59375 -29.1875 C 17.570312 -28.570312 17.832031 -28.003906 18.375 -27.484375 C 18.925781 -26.972656 19.988281 -26.570312 21.5625 -26.28125 L 29.9375 -24.78125 C 34.15625 -24.007812 37.296875 -22.71875 39.359375 -20.90625 C 41.421875 -19.09375 42.460938 -16.664062 42.484375 -13.625 C 42.460938 -10.695312 41.585938 -8.15625 39.859375 -6 C 38.140625 -3.84375 35.789062 -2.175781 32.8125 -1 C 29.832031 0.164062 26.441406 0.75 22.640625 0.75 C 16.347656 0.75 11.425781 -0.535156 7.875 -3.109375 C 4.320312 -5.679688 2.34375 -9.078125 1.9375 -13.296875 L 16.625 -13.296875 C 16.820312 -11.992188 17.46875 -10.988281 18.5625 -10.28125 C 19.664062 -9.582031 21.0625 -9.234375 22.75 -9.234375 C 24.101562 -9.234375 25.222656 -9.460938 26.109375 -9.921875 C 26.992188 -10.390625 27.445312 -11.050781 27.46875 -11.90625 C 27.445312 -12.695312 27.054688 -13.320312 26.296875 -13.78125 C 25.535156 -14.25 24.351562 -14.625 22.75 -14.90625 L 15.453125 -16.203125 C 11.242188 -16.929688 8.09375 -18.320312 6 -20.375 C 3.914062 -22.4375 2.878906 -25.085938 2.890625 -28.328125 C 2.878906 -31.179688 3.632812 -33.601562 5.15625 -35.59375 C 6.6875 -37.59375 8.878906 -39.113281 11.734375 -40.15625 C 14.585938 -41.207031 17.972656 -41.734375 21.890625 -41.734375 C 27.835938 -41.734375 32.53125 -40.5 35.96875 -38.03125 C 39.414062 -35.5625 41.226562 -32.144531 41.40625 -27.78125 Z M 41.40625 -27.78125 "/></g></g></g><g fill="#000000" fill-opacity="1"><g transform="translate(483.742779, 101.998381)"><g><path d="M 41.40625 -27.78125 L 27.78125 -27.78125 C 27.71875 -28.625 27.425781 -29.347656 26.90625 -29.953125 C 26.382812 -30.566406 25.71875 -31.035156 24.90625 -31.359375 C 24.09375 -31.691406 23.191406 -31.859375 22.203125 -31.859375 C 20.929688 -31.859375 19.835938 -31.625 18.921875 -31.15625 C 18.015625 -30.695312 17.570312 -30.039062 17.59375 -29.1875 C 17.570312 -28.570312 17.832031 -28.003906 18.375 -27.484375 C 18.925781 -26.972656 19.988281 -26.570312 21.5625 -26.28125 L 29.9375 -24.78125 C 34.15625 -24.007812 37.296875 -22.71875 39.359375 -20.90625 C 41.421875 -19.09375 42.460938 -16.664062 42.484375 -13.625 C 42.460938 -10.695312 41.585938 -8.15625 39.859375 -6 C 38.140625 -3.84375 35.789062 -2.175781 32.8125 -1 C 29.832031 0.164062 26.441406 0.75 22.640625 0.75 C 16.347656 0.75 11.425781 -0.535156 7.875 -3.109375 C 4.320312 -5.679688 2.34375 -9.078125 1.9375 -13.296875 L 16.625 -13.296875 C 16.820312 -11.992188 17.46875 -10.988281 18.5625 -10.28125 C 19.664062 -9.582031 21.0625 -9.234375 22.75 -9.234375 C 24.101562 -9.234375 25.222656 -9.460938 26.109375 -9.921875 C 26.992188 -10.390625 27.445312 -11.050781 27.46875 -11.90625 C 27.445312 -12.695312 27.054688 -13.320312 26.296875 -13.78125 C 25.535156 -14.25 24.351562 -14.625 22.75 -14.90625 L 15.453125 -16.203125 C 11.242188 -16.929688 8.09375 -18.320312 6 -20.375 C 3.914062 -22.4375 2.878906 -25.085938 2.890625 -28.328125 C 2.878906 -31.179688 3.632812 -33.601562 5.15625 -35.59375 C 6.6875 -37.59375 8.878906 -39.113281 11.734375 -40.15625 C 14.585938 -41.207031 17.972656 -41.734375 21.890625 -41.734375 C 27.835938 -41.734375 32.53125 -40.5 35.96875 -38.03125 C 39.414062 -35.5625 41.226562 -32.144531 41.40625 -27.78125 Z M 41.40625 -27.78125 "/></g></g></g><g fill="#000000" fill-opacity="1"><g transform="translate(543.181053, 101.998381)"><g><path d="M 2.03125 -42.921875 L 2.03125 -54.9375 L 49.78125 -54.9375 L 49.78125 -42.921875 L 33.265625 -42.921875 L 33.265625 0 L 18.5625 0 L 18.5625 -42.921875 Z M 2.03125 -42.921875 "/></g></g></g><g fill="#000000" fill-opacity="1"><g transform="translate(595.001745, 101.998381)"><g><path d="M 23.609375 0.75 C 19.128906 0.75 15.296875 -0.140625 12.109375 -1.921875 C 8.929688 -3.703125 6.492188 -6.1875 4.796875 -9.375 C 3.097656 -12.5625 2.25 -16.265625 2.25 -20.484375 C 2.25 -24.710938 3.097656 -28.421875 4.796875 -31.609375 C 6.492188 -34.796875 8.929688 -37.28125 12.109375 -39.0625 C 15.296875 -40.84375 19.128906 -41.734375 23.609375 -41.734375 C 28.078125 -41.734375 31.898438 -40.84375 35.078125 -39.0625 C 38.265625 -37.28125 40.707031 -34.796875 42.40625 -31.609375 C 44.101562 -28.421875 44.953125 -24.710938 44.953125 -20.484375 C 44.953125 -16.265625 44.101562 -12.5625 42.40625 -9.375 C 40.707031 -6.1875 38.265625 -3.703125 35.078125 -1.921875 C 31.898438 -0.140625 28.078125 0.75 23.609375 0.75 Z M 23.703125 -10.1875 C 24.960938 -10.1875 26.046875 -10.609375 26.953125 -11.453125 C 27.867188 -12.296875 28.578125 -13.492188 29.078125 -15.046875 C 29.578125 -16.597656 29.828125 -18.445312 29.828125 -20.59375 C 29.828125 -22.757812 29.578125 -24.613281 29.078125 -26.15625 C 28.578125 -27.707031 27.867188 -28.898438 26.953125 -29.734375 C 26.046875 -30.578125 24.960938 -31 23.703125 -31 C 22.378906 -31 21.242188 -30.578125 20.296875 -29.734375 C 19.347656 -28.898438 18.625 -27.707031 18.125 -26.15625 C 17.625 -24.613281 17.375 -22.757812 17.375 -20.59375 C 17.375 -18.445312 17.625 -16.597656 18.125 -15.046875 C 18.625 -13.492188 19.347656 -12.296875 20.296875 -11.453125 C 21.242188 -10.609375 22.378906 -10.1875 23.703125 -10.1875 Z M 23.703125 -10.1875 "/></g></g></g><g fill="#000000" fill-opacity="1"><g transform="translate(642.209048, 101.998381)"><g><path d="M 18.671875 0.53125 C 15.734375 0.53125 13.035156 -0.234375 10.578125 -1.765625 C 8.117188 -3.304688 6.148438 -5.640625 4.671875 -8.765625 C 3.203125 -11.898438 2.46875 -15.84375 2.46875 -20.59375 C 2.46875 -25.570312 3.238281 -29.613281 4.78125 -32.71875 C 6.332031 -35.832031 8.335938 -38.113281 10.796875 -39.5625 C 13.253906 -41.007812 15.84375 -41.734375 18.5625 -41.734375 C 20.601562 -41.734375 22.390625 -41.378906 23.921875 -40.671875 C 25.460938 -39.960938 26.75 -39.023438 27.78125 -37.859375 C 28.820312 -36.691406 29.609375 -35.410156 30.140625 -34.015625 L 30.359375 -34.015625 L 30.359375 -54.9375 L 45.171875 -54.9375 L 45.171875 0 L 30.46875 0 L 30.46875 -6.765625 L 30.140625 -6.765625 C 29.578125 -5.367188 28.757812 -4.117188 27.6875 -3.015625 C 26.625 -1.921875 25.335938 -1.054688 23.828125 -0.421875 C 22.316406 0.210938 20.597656 0.53125 18.671875 0.53125 Z M 24.140625 -10.84375 C 25.492188 -10.84375 26.660156 -11.238281 27.640625 -12.03125 C 28.617188 -12.820312 29.367188 -13.945312 29.890625 -15.40625 C 30.421875 -16.863281 30.6875 -18.59375 30.6875 -20.59375 C 30.6875 -22.632812 30.421875 -24.382812 29.890625 -25.84375 C 29.367188 -27.300781 28.617188 -28.414062 27.640625 -29.1875 C 26.660156 -29.96875 25.492188 -30.359375 24.140625 -30.359375 C 22.773438 -30.359375 21.613281 -29.96875 20.65625 -29.1875 C 19.707031 -28.414062 18.976562 -27.300781 18.46875 -25.84375 C 17.957031 -24.382812 17.703125 -22.632812 17.703125 -20.59375 C 17.703125 -18.5625 17.957031 -16.816406 18.46875 -15.359375 C 18.976562 -13.898438 19.707031 -12.78125 20.65625 -12 C 21.613281 -11.226562 22.773438 -10.84375 24.140625 -10.84375 Z M 24.140625 -10.84375 "/></g></g></g><g fill="#000000" fill-opacity="1"><g transform="translate(690.918382, 101.998381)"><g><path d="M 23.609375 0.75 C 19.128906 0.75 15.296875 -0.140625 12.109375 -1.921875 C 8.929688 -3.703125 6.492188 -6.1875 4.796875 -9.375 C 3.097656 -12.5625 2.25 -16.265625 2.25 -20.484375 C 2.25 -24.710938 3.097656 -28.421875 4.796875 -31.609375 C 6.492188 -34.796875 8.929688 -37.28125 12.109375 -39.0625 C 15.296875 -40.84375 19.128906 -41.734375 23.609375 -41.734375 C 28.078125 -41.734375 31.898438 -40.84375 35.078125 -39.0625 C 38.265625 -37.28125 40.707031 -34.796875 42.40625 -31.609375 C 44.101562 -28.421875 44.953125 -24.710938 44.953125 -20.484375 C 44.953125 -16.265625 44.101562 -12.5625 42.40625 -9.375 C 40.707031 -6.1875 38.265625 -3.703125 35.078125 -1.921875 C 31.898438 -0.140625 28.078125 0.75 23.609375 0.75 Z M 23.703125 -10.1875 C 24.960938 -10.1875 26.046875 -10.609375 26.953125 -11.453125 C 27.867188 -12.296875 28.578125 -13.492188 29.078125 -15.046875 C 29.578125 -16.597656 29.828125 -18.445312 29.828125 -20.59375 C 29.828125 -22.757812 29.578125 -24.613281 29.078125 -26.15625 C 28.578125 -27.707031 27.867188 -28.898438 26.953125 -29.734375 C 26.046875 -30.578125 24.960938 -31 23.703125 -31 C 22.378906 -31 21.242188 -30.578125 20.296875 -29.734375 C 19.347656 -28.898438 18.625 -27.707031 18.125 -26.15625 C 17.625 -24.613281 17.375 -22.757812 17.375 -20.59375 C 17.375 -18.445312 17.625 -16.597656 18.125 -15.046875 C 18.625 -13.492188 19.347656 -12.296875 20.296875 -11.453125 C 21.242188 -10.609375 22.378906 -10.1875 23.703125 -10.1875 Z M 23.703125 -10.1875 "/></g></g></g></svg>