<svg xmlns="http://www.w3.org/2000/svg" xmlns:xlink="http://www.w3.org/1999/xlink" xmlns:lucid="lucid" width="1502" height="1109"><g transform="translate(80 436)" lucid:page-tab-id="0_0"><path d="M-500-500h2000v2000H-500z" fill="#fff"/><path d="M120-394a6 6 0 0 1 6-6h1228a6 6 0 0 1 6 6V634a6 6 0 0 1-6 6H126a6 6 0 0 1-6-6z" fill="#fff" fill-opacity="0"/><path d="M137.96-400h7.97m7.98 0h7.98m7.98 0h7.97m7.97 0h7.98m7.97 0h7.98m7.97 0h7.98m7.97 0h7.97m7.98 0h7.97m7.98 0h7.97m7.97 0h7.97m7.97 0h7.98m7.97 0h7.96m7.98 0h7.97m8 0h7.96m7.97 0h7.98m7.98 0h7.98m7.97 0h7.97m7.98 0h7.97m7.98 0H433m7.97 0h7.98m7.97 0h7.98m7.97 0h7.97m7.98 0h7.97m7.97 0h7.97m7.97 0h8m7.96 0h7.98m7.97 0h7.98m7.98 0h7.97m7.98 0h7.98m7.98 0h7.97m7.97 0h7.98m7.97 0h7.98m7.97 0h7.97m7.98 0h7.97m7.98 0h7.97m7.97 0h7.98m7.97 0h7.97m7.97 0H736m8 0h7.96m7.97 0h7.98m7.98 0h7.98m7.97 0h7.97m7.98 0h7.97m7.98 0h7.97m7.97 0h7.98m7.97 0h7.98m7.97 0h7.97m7.98 0h7.97m7.97 0h7.97m7.98 0h7.97m7.96 0h7.98m7.97 0h8m7.96 0h7.97m7.98 0h7.98m7.98 0h7.97m7.97 0h7.98m7.97 0h7.98m7.97 0h7.97m7.98 0h7.97m7.98 0h7.97m7.97 0h7.98m7.97 0h7.97m7.97 0h7.97m8 0h7.96m7.98 0h7.97m7.98 0h7.98m7.97 0h7.98m7.98 0h7.97m7.98 0h7.97m7.98 0h7.97m7.98 0h7.97m7.97 0h7.98m7.97 0h7.97m7.97 0h7.97m7.98 0h7.97m7.97 0h7.97m7.97 0h4l.94.07.9.22.88.35.8.5.72.6.6.72.5.8.37.88.23.9.07.95v4.02m0 8.03v8.03m0 8.03v8.04m0 8.03v8.03m0 8.03v8.04m0 8.03v8.03m0 8.03v8.03m0 8.02v8.03m0 8.03v8.04m0 8.03v8.03m0 8.03v8.04m0 8.03v8.03m0 8.03v8.04m0 8.03v8.03m0 8.03v8.03m0 8.02v8.03m0 8.03v8.04m0 8.03v8.03m0 8.03v8.04m0 8.03v8.03m0 8.03v8.04m0 8.03v8.03m0 8.03v8.03m0 8.02v8.03m0 8.03v8.04m0 8.03v8.03m0 8.03v8.04m0 8.03v8.03m0 8.03v8.04m0 8.03v8.03m0 8.03v8.03m0 8.02v8.03m0 8.03v8.04m0 8.03v8.03m0 8.03v8.04m0 8.03v8.03m0 8.03v8.04m0 8.03v8.03m0 8.03v8.03m0 8.02v8.03m0 8.03v8.04m0 8.03v8.03m0 8.03v8.04m0 8.03v8.03m0 8.03v8.04m0 8.03v8.03m0 8.03v8.03m0 8.02v8.03m0 8.03v8.04m0 8.03v8.03m0 8.03v8.04m0 8.03v8.03m0 8.03v8.04m0 8.03v8.03m0 8.03v8.03m0 8.02v8.03m0 8.03v8.04m0 8.03v8.03m0 8.03v8.04m0 8.03v8.03m0 8.03v8.04m0 8.03v8.03m0 8.03v8.03m0 8.02v8.03m0 8.03V634l-.07.94-.22.9-.35.88-.5.8-.6.72-.72.6-.8.5-.88.37-.9.23-.95.07h-4m-7.96 0h-7.97m-7.98 0h-7.98m-7.98 0h-7.97m-7.98 0h-7.98m-7.97 0h-7.98m-7.97 0h-7.97m-7.98 0h-7.97m-7.98 0h-7.97m-7.98 0h-7.97m-7.97 0h-7.97m-7.97 0h-7.98m-7.97 0h-7.96m-7.98 0h-7.97m-8 0h-7.96m-7.97 0h-7.98m-7.98 0h-7.98m-7.97 0h-7.97m-7.98 0h-7.97m-7.98 0H1047m-7.97 0h-7.98m-7.97 0h-7.98m-7.97 0h-7.97m-7.98 0h-7.97m-7.97 0h-7.97m-7.97 0h-8m-7.96 0h-7.98m-7.97 0h-7.98m-7.98 0h-7.97m-7.98 0h-7.98m-7.98 0h-7.97m-7.97 0h-7.98m-7.97 0h-7.98m-7.97 0h-7.97m-7.98 0h-7.97m-7.98 0h-7.97m-7.97 0h-7.98m-7.97 0h-7.97m-7.97 0H744m-8 0h-7.96m-7.97 0h-7.98m-7.98 0h-7.98m-7.97 0h-7.97m-7.98 0h-7.97m-7.98 0h-7.97m-7.97 0h-7.98m-7.97 0h-7.98m-7.97 0h-7.97m-7.98 0h-7.97m-7.97 0h-7.97m-7.98 0h-7.97m-7.96 0h-7.98m-7.97 0h-8m-7.96 0h-7.97m-7.98 0h-7.98m-7.98 0h-7.97m-7.97 0h-7.98m-7.97 0h-7.98m-7.97 0h-7.97m-7.98 0h-7.97m-7.98 0h-7.97m-7.97 0h-7.98m-7.97 0h-7.97m-7.97 0h-7.97m-8 0h-7.96m-7.98 0h-7.97m-7.98 0h-7.98m-7.97 0h-7.98m-7.98 0h-7.97m-7.98 0h-7.97m-7.98 0h-7.97m-7.97 0h-7.98m-7.97 0h-7.98m-7.97 0h-7.97m-7.97 0h-7.97m-7.98 0h-7.97m-7.97 0h-7.97m-7.97 0h-4l-.94-.07-.9-.22-.88-.35-.8-.5-.72-.6-.6-.72-.5-.8-.37-.88-.23-.9-.07-.95v-4.02m0-8.03v-8.03m0-8.03v-8.04m0-8.03v-8.03m0-8.03v-8.04m0-8.03v-8.03m0-8.03v-8.03m0-8.02v-8.03m0-8.03v-8.04m0-8.03v-8.03m0-8.03v-8.04m0-8.03v-8.03m0-8.03v-8.04m0-8.03v-8.03m0-8.03v-8.03m0-8.02v-8.03m0-8.03v-8.04m0-8.03v-8.03m0-8.03v-8.04m0-8.03v-8.03m0-8.03v-8.04m0-8.03v-8.03m0-8.03v-8.03m0-8.02v-8.03m0-8.03v-8.04m0-8.03v-8.03m0-8.03v-8.04m0-8.03v-8.03m0-8.03v-8.04m0-8.03v-8.03m0-8.03v-8.03m0-8.02v-8.03m0-8.03v-8.04m0-8.03v-8.03m0-8.03v-8.04m0-8.03V67.8m0-8.03v-8.04m0-8.03v-8.03m0-8.03V19.6m0-8.02V3.55m0-8.03v-8.04m0-8.03v-8.03m0-8.03v-8.04m0-8.03v-8.03m0-8.03v-8.04m0-8.03v-8.03m0-8.03v-8.03m0-8.02v-8.03m0-8.03v-8.04m0-8.03v-8.03m0-8.03v-8.04m0-8.03v-8.03m0-8.03v-8.04m0-8.03v-8.03m0-8.03v-8.03m0-8.02v-8.03m0-8.03v-8.04m0-8.03v-8.03m0-8.03v-8.04m0-8.03v-8.03m0-8.03v-8.04m0-8.03v-8.03m0-8.03v-8.03m0-8.02v-8.03m0-8.03V-394l.07-.94.22-.9.35-.88.5-.8.6-.72.72-.6.8-.5.88-.37.9-.23.95-.07h4" stroke="#5a6c86" stroke-width="2" fill="none"/><path d="M120-400h56v56h-56v-56z" stroke="#fff" stroke-opacity="0" fill="#5a6c86"/><path d="M160.88-358.78h-25c-4.13.05-7.57-3.1-7.9-7.2v-.64c-.15-3.4 1.97-6.38 5.25-7.36v-.66c.12-4.22 2.44-7.75 6.24-9.57 4.13-1.86 8.73-.96 11.8 2.3 1.1 1.1 1.85 2.2 2.45 3.6 1.2-1 2.72-1.32 4.24-.9 2.24.8 3.68 2.74 3.76 5.1 3.68.65 6.32 3.8 6.28 7.56 0 7.07-7.04 7.73-7.12 7.76zm-26.7-13.88c-2.83.6-4.75 3.14-4.6 6.04v.53c.3 3.33 3.1 5.84 6.4 5.76h24.98c3.04-.3 5.4-2.64 5.68-5.7.28-3.43-2.24-6.5-5.68-6.78-.44-.05-.72-.44-.64-.87.08-1.83-1-3.44-2.72-4.13-1.32-.37-2.64.13-3.44 1.24-.2.25-.44.38-.76.33-.28-.05-.48-.24-.6-.5-.6-1.6-1.4-2.85-2.6-4.04-2.7-2.8-6.6-3.6-10.13-2-3.24 1.6-5.2 4.63-5.32 8.24-.04.4-.04.74 0 1.14.04.4-.2.76-.6.84z" stroke="#fff" stroke-opacity="0" fill="#fff"/><use xlink:href="#a" transform="matrix(1,0,0,1,191,-380) translate(0 14.222222222222223)"/><use xlink:href="#b" transform="matrix(1,0,0,1,191,-380) translate(88.74074074074076 14.222222222222223)"/><use xlink:href="#c" transform="matrix(1,0,0,1,191,-380) translate(132.14814814814818 14.222222222222223)"/><path d="M220-174a6 6 0 0 1 6-6h1028a6 6 0 0 1 6 6v608a6 6 0 0 1-6 6H226a6 6 0 0 1-6-6z" stroke="#248814" stroke-width="2" fill="#fff" fill-opacity="0"/><path d="M220-180h56v56h-56v-56z" stroke="#fff" stroke-opacity="0" fill="#248814"/><path d="M251.76-151.7h-1.18v-1.1c-.12-1.73-1.48-3.07-3.2-3.2-1.9-.13-3.54 1.3-3.67 3.2v1.07h-1.17c-.44 0-.8.36-.8.8v6.13c0 .44.36.8.8.8h9.23c.44 0 .8-.36.8-.8v-6.1c0-.44-.36-.8-.8-.8zm-6.4-1.06c.1-1.03 1-1.77 2-1.67.9.08 1.58.77 1.67 1.67v1.06h-3.72zm5.65 7.08h-7.67v-4.42h7.63z" stroke="#fff" stroke-opacity="0" fill="#fff"/><path d="M262.27-154.25c-.08-2.45-1.58-4.48-3.87-5.3-1.58-.47-3.16-.14-4.4.9-.68-1.45-1.47-2.6-2.6-3.76-3.24-3.36-7.94-4.3-12.18-2.4-4.04 1.9-6.4 5.63-6.54 10.05v.7c-3.4.98-5.66 4.08-5.5 7.65v.63c.38 4.28 3.92 7.52 8.2 7.47h26s7.42-.63 7.42-8.1c.04-3.9-2.66-7.2-6.53-7.85zm-.96 14.38h-25.9c-3.47.06-6.3-2.52-6.6-5.96v-.52c-.15-3.05 1.93-5.7 4.92-6.3.38-.12.63-.48.6-.9-.06-.4-.06-.73 0-1.14.07-3.78 2.1-6.94 5.52-8.6 1.25-.56 2.4-.8 3.83-.84 2.62.08 4.87 1.04 6.7 2.94 1.25 1.3 2.04 2.6 2.62 4.3.03.15.1.28.24.37.37.27.87.2 1.12-.17.83-1.18 2.25-1.67 3.62-1.3 1.8.72 2.87 2.4 2.83 4.32-.07.4.22.83.64.9 3.57.36 6.2 3.55 5.82 7.12-.3 3.13-2.7 5.52-5.82 5.85z" stroke="#fff" stroke-opacity="0" fill="#fff"/><use xlink:href="#d" transform="matrix(1,0,0,1,291,-160) translate(0 14.222222222222223)"/><use xlink:href="#e" transform="matrix(1,0,0,1,291,-160) translate(54.814814814814824 14.222222222222223)"/><use xlink:href="#f" transform="matrix(1,0,0,1,291,-160) translate(114.96296296296298 14.222222222222223)"/><path d="M420-94a6 6 0 0 1 6-6h268a6 6 0 0 1 6 6v488a6 6 0 0 1-6 6H426a6 6 0 0 1-6-6z" fill="#248814" fill-opacity=".13"/><path d="M420-100h56v56h-56v-56z" stroke="#fff" stroke-opacity="0" fill="#248814"/><path d="M463.38-77.82c-.15-.17-.34-.25-.56-.25h-5.15v-5.58c-.03-2.54-.97-4.7-2.84-6.4-1.9-1.84-4.15-2.75-6.77-2.75-2.65 0-4.9.83-6.8 2.62-1.9 1.7-2.87 3.87-2.9 6.4v5.67l-5.15-.02c-.24 0-.43.1-.58.25-.16.17-.22.34-.22.6V-52c0 .43.34.8.8.8h29.6c.46 0 .8-.37.8-.8v-25.28c0-.2-.06-.38-.22-.54zm-23.46-5.9c.03-2.13.8-3.88 2.37-5.3 1.6-1.5 3.52-2.2 5.73-2.2 2.22 0 4.12.75 5.7 2.25 1.54 1.4 2.32 3.2 2.32 5.32v5.58H439.9zm22.1 30.94h-28.03v-23.7h28z" stroke="#fff" stroke-opacity="0" fill="#fff"/><path d="M447.2-62.7v6.25h1.6v-6.23c2.13-.4 3.62-2.2 3.63-4.35 0-2.43-1.97-4.4-4.4-4.43-2.2-.03-4.06 1.5-4.44 3.68-.42 2.4 1.2 4.68 3.6 5.1zm.82-7.15c.78 0 1.44.27 2 .82.54.56.82 1.22.8 2 .03 1.55-1.2 2.8-2.74 2.82h-.06c-1.56.1-2.92-1.06-3.04-2.62-.12-1.56 1.05-2.93 2.6-3.03.16-.02.3-.02.44 0z" stroke="#fff" stroke-opacity="0" fill="#fff"/><use xlink:href="#g" transform="matrix(1,0,0,1,491,-79.99999999999994) translate(0 14.222222222222223)"/><use xlink:href="#h" transform="matrix(1,0,0,1,491,-79.99999999999994) translate(53.23456790123458 14.222222222222223)"/><path d="M940-94a6 6 0 0 1 6-6h268a6 6 0 0 1 6 6v488a6 6 0 0 1-6 6H946a6 6 0 0 1-6-6z" fill="#147eba" fill-opacity=".13"/><path d="M940-100h56v56h-56v-56z" stroke="#fff" stroke-opacity="0" fill="#147eba"/><path d="M983.38-77.82c-.15-.17-.34-.25-.56-.25h-5.15v-5.58c-.03-2.54-.96-4.7-2.84-6.4-1.9-1.84-4.15-2.75-6.77-2.75-2.65 0-4.9.83-6.8 2.62-1.9 1.7-2.87 3.87-2.9 6.4v5.67l-5.15-.02c-.24 0-.43.1-.58.25-.16.17-.22.34-.22.6V-52c0 .43.34.8.8.8h29.6c.46 0 .8-.37.8-.8v-25.28c0-.2-.06-.38-.22-.54zm-23.46-5.9c.03-2.13.8-3.88 2.37-5.3 1.6-1.5 3.52-2.2 5.73-2.2 2.22 0 4.12.75 5.7 2.25 1.54 1.4 2.32 3.2 2.32 5.32v5.58H959.9zm22.1 30.94h-28.03v-23.7h28z" stroke="#fff" stroke-opacity="0" fill="#fff"/><path d="M967.2-62.7v6.25h1.6v-6.23c2.13-.4 3.62-2.2 3.63-4.35 0-2.43-1.97-4.4-4.4-4.43-2.2-.03-4.06 1.5-4.44 3.68-.42 2.4 1.2 4.68 3.6 5.1zm.82-7.15c.78 0 1.44.27 2 .82.54.56.82 1.22.8 2 .03 1.55-1.2 2.8-2.74 2.82h-.06c-1.56.1-2.92-1.06-3.04-2.62-.12-1.56 1.05-2.93 2.6-3.03.16-.02.28-.02.44 0z" stroke="#fff" stroke-opacity="0" fill="#fff"/><use xlink:href="#i" transform="matrix(1,0,0,1,1011,-79.99999999999994) translate(0 14.222222222222223)"/><use xlink:href="#h" transform="matrix(1,0,0,1,1011,-79.99999999999994) translate(60.14814814814815 14.222222222222223)"/><path d="M460-14a6 6 0 0 1 6-6h188a6 6 0 0 1 6 6v368a6 6 0 0 1-6 6H466a6 6 0 0 1-6-6z" fill="#fff" fill-opacity="0"/><path d="M477.75-20h7.83m7.84 0h7.83m7.83 0h7.84m7.83 0h7.83m7.84 0h7.83m7.83 0h7.84m7.83 0h7.83m7.84 0h7.83m7.83 0h7.84m7.83 0h7.83m7.84 0h7.83m7.83 0H654l.94.07.9.22.88.35.8.5.72.6.6.72.5.8.37.88.23.9.07.95v4m0 8v8m0 8v8m0 8v8m0 8v8m0 8v8m0 8v8m0 8v8m0 8v8m0 8v8m0 8v8m0 8v8m0 8v8m0 8v8m0 8v8m0 8v8m0 8v8m0 8v8m0 8v8m0 8v8m0 8v8m0 8v8m0 8v8m0 8v4l-.07.94-.22.9-.35.88-.5.8-.6.72-.72.6-.8.5-.88.37-.9.23-.95.07h-3.92m-7.83 0h-7.83m-7.84 0h-7.83m-7.83 0h-7.84m-7.83 0h-7.83m-7.84 0h-7.83m-7.83 0h-7.84m-7.83 0h-7.83m-7.84 0h-7.83m-7.83 0h-7.84m-7.83 0h-7.83m-7.84 0h-7.83m-7.83 0H466l-.94-.07-.9-.22-.88-.35-.8-.5-.72-.6-.6-.72-.5-.8-.37-.88-.23-.9-.07-.95v-4m0-8v-8m0-8v-8m0-8v-8m0-8v-8m0-8v-8m0-8v-8m0-8v-8m0-8v-8m0-8v-8m0-8v-8m0-8v-8m0-8v-8m0-8v-8m0-8v-8m0-8v-8m0-8v-8m0-8v-8m0-8v-8m0-8v-8m0-8v-8m0-8v-8m0-8v-8m0-8v-4l.07-.94.22-.9.35-.88.5-.8.6-.72.72-.6.8-.5.88-.37.9-.23.95-.07h3.92" stroke="#5a6c86" stroke-width="2" fill="none"/><use xlink:href="#j" transform="matrix(1,0,0,1,460,-5.684341886080802e-14) translate(43.77777777777777 14.222222222222223)"/><use xlink:href="#k" transform="matrix(1,0,0,1,460,-5.684341886080802e-14) translate(98 14.222222222222223)"/><path d="M980-14a6 6 0 0 1 6-6h188a6 6 0 0 1 6 6v368a6 6 0 0 1-6 6H986a6 6 0 0 1-6-6z" fill="#fff" fill-opacity="0"/><path d="M997.75-20h7.83m7.84 0h7.83m7.83 0h7.84m7.83 0h7.83m7.84 0h7.83m7.83 0h7.84m7.83 0h7.83m7.84 0h7.83m7.83 0h7.84m7.83 0h7.83m7.84 0h7.83m7.83 0h3.92l.94.07.9.22.88.35.8.5.72.6.6.72.5.8.37.88.23.9.07.95v4m0 8v8m0 8v8m0 8v8m0 8v8m0 8v8m0 8v8m0 8v8m0 8v8m0 8v8m0 8v8m0 8v8m0 8v8m0 8v8m0 8v8m0 8v8m0 8v8m0 8v8m0 8v8m0 8v8m0 8v8m0 8v8m0 8v8m0 8v4l-.07.94-.22.9-.35.88-.5.8-.6.72-.72.6-.8.5-.88.37-.9.23-.95.07h-3.92m-7.83 0h-7.83m-7.84 0h-7.83m-7.83 0h-7.84m-7.83 0h-7.83m-7.84 0h-7.83m-7.83 0h-7.84m-7.83 0h-7.83m-7.84 0h-7.83m-7.83 0h-7.84m-7.83 0h-7.83m-7.84 0h-7.83m-7.83 0H986l-.94-.07-.9-.22-.88-.35-.8-.5-.72-.6-.6-.72-.5-.8-.37-.88-.23-.9-.07-.95v-4m0-8v-8m0-8v-8m0-8v-8m0-8v-8m0-8v-8m0-8v-8m0-8v-8m0-8v-8m0-8v-8m0-8v-8m0-8v-8m0-8v-8m0-8v-8m0-8v-8m0-8v-8m0-8v-8m0-8v-8m0-8v-8m0-8v-8m0-8v-8m0-8v-8m0-8v-8m0-8v-4l.07-.94.22-.9.35-.88.5-.8.6-.72.72-.6.8-.5.88-.37.9-.23.95-.07h3.92" stroke="#5a6c86" stroke-width="2" fill="none"/><use xlink:href="#l" transform="matrix(1,0,0,1,980,-5.684341886080802e-14) translate(26.987654320987644 14.222222222222223)"/><use xlink:href="#m" transform="matrix(1,0,0,1,980,-5.684341886080802e-14) translate(96.07407407407408 14.222222222222223)"/><path d="M180 686a6 6 0 0 1 6-6h228a6 6 0 0 1 6 6v28a6 6 0 0 1-6 6H186a6 6 0 0 1-6-6z" fill="none"/><use xlink:href="#n" transform="matrix(1,0,0,1,180,680) translate(5.012345679012327 23.555555555555557)"/><use xlink:href="#o" transform="matrix(1,0,0,1,180,680) translate(73.01234567901233 23.555555555555557)"/><use xlink:href="#p" transform="matrix(1,0,0,1,180,680) translate(123.62962962962962 23.555555555555557)"/><path d="M100 680h80v80h-80v-80z" stroke="#000" stroke-opacity="0" fill="url(#q)"/><path d="M160.7 693.76c3.74 0 6.82 3.06 6.82 6.83v10.1c0 3.76-3.08 6.82-6.83 6.82h-1.93v28.76c0 .7-.55 1.24-1.27 1.24h-36.27c-.66 0-1.27-.54-1.27-1.24v-28.76h-.65c-3.74 0-6.82-3.06-6.82-6.83v-10.1c0-3.78 3.08-6.84 6.83-6.84zM122.5 745h33.74V717.5H122.5zm38.2-30c2.2 0 3.96-1.62 4.23-3.7h-28.67v-2.54h28.78v-8.17c0-2.38-1.98-4.3-4.34-4.3h-41.4c-2.36 0-4.34 1.92-4.34 4.3v8.16h11.28v2.53h-11.17c.27 2.08 2.03 3.7 4.24 3.7zm-23.56 25.15l-2.3-.9 7.47-18.18 2.32.97zm8.3-5.53l5.18-4.52-5.17-4.46 1.65-1.94 6.22 5.43c.28.22.44.6.44.92 0 .37-.16.7-.44.97l-6.22 5.48zm-19.75-4.46c0-.38.16-.7.43-.92l6.22-5.48 1.65 1.83-5.12 4.56 5.07 4.4-1.6 1.9-6.22-5.34c-.27-.27-.44-.6-.44-.96zm3.02-18.87v-2.54h5v2.53z" stroke="#000" stroke-opacity="0" fill="#fff"/><path d="M780-340h80v80h-80v-80z" stroke="#000" stroke-opacity="0" fill="url(#r)"/><path d="M809.98-315.04h2.53v2.52H810v12.42c0-.27.17-.6.4-.82l3.73-3.74 1.77 1.76-2.86 2.86 2.87 2.86-1.76 1.76-3.73-3.74c-.22-.22-.4-.55-.4-.88v12.48h2.54v2.52H810v11.22c0 .44-.22.82-.6 1.1-.17.1-.4.16-.66.16-.17 0-.33-.06-.55-.1l-14.97-7.54c-.45-.22-.72-.6-.72-1.1v-36.22c0-.44.22-.88.6-1.1l15.03-8.74c.4-.2.9-.2 1.28 0 .38.23.6.66.6 1.1zm37.54-2.48v36.22c0 .5-.27.88-.72 1.1l-14.97 7.53c-.22.06-.38.1-.55.1-.27 0-.5-.05-.66-.16-.38-.27-.6-.65-.6-1.1v-11.2h-2.53v-2.53H830v-12.48c0 .33-.17.66-.4.88l-3.73 3.74-1.77-1.76 2.86-2.86-2.87-2.86 1.76-1.76 3.73 3.74c.22.22.4.55.4.82v-12.42h-2.54v-2.52H830v-11.22c0-.44.22-.88.6-1.1.4-.2.88-.2 1.27 0l15 8.74c.4.22.62.66.62 1.1zm-40-6.6l-12.56 7.32v34.73l12.55 6.2zm37.52 7.32l-12.55-7.3v48.24l12.54-6.2zm-21.35 10.93l-5.02 13.74-2.37-.82 5.02-13.74zm-8.7-6.65v-2.52h3.73v2.52zm6.27 0v-2.52H825v2.52zM815-285.04v-2.52h3.73v2.52zm6.27 0v-2.52H825v2.52z" stroke="#000" stroke-opacity="0" fill="#fff"/><use xlink:href="#s" transform="matrix(1,0,0,1,750,-251) translate(18.172839506172835 14.222222222222223)"/><use xlink:href="#t" transform="matrix(1,0,0,1,750,-251) translate(51.75308641975309 14.222222222222223)"/><path d="M1040 120h80v80h-80v-80z" stroke="#000" stroke-opacity="0" fill="url(#u)"/><path d="M1104.98 173.76c.68 0 1.26.55 1.26 1.27v11.22c0 .72-.58 1.27-1.26 1.27h-13.28c-.52 0-.94-.28-1.15-.72l-18.8-40.56h-7.8c-.38 0-.7-.1-.9-.4-.26-.2-.37-.54-.37-.87v-11.22c0-.72.58-1.27 1.26-1.27h16.64c.47 0 .9.28 1.1.72l18.68 40.56zm-1.2 11.28v-8.8h-4.2c-.48 0-.9-.28-1.1-.72l-18.7-40.56h-14.63v8.8h7.4c.52 0 .94.28 1.15.72l18.8 40.56zm-32.86-30.43l7.1 14.7c.14.33.14.72 0 1.05l-7.73 16.45c-.22.44-.7.72-1.16.72h-14.12c-.42 0-.84-.22-1.05-.6-.26-.34-.26-.78-.1-1.22l14.8-31.1c.2-.43.62-.7 1.1-.7.52 0 .94.27 1.15.7zm-2.57 30.44l7.14-15.2-5.68-11.82-12.86 27.02z" stroke="#000" stroke-opacity="0" fill="#fff"/><use xlink:href="#v" transform="matrix(1,0,0,1,1010,209) translate(5.432098765432102 14.222222222222223)"/><use xlink:href="#w" transform="matrix(1,0,0,1,1010,209) translate(61.530864197530875 14.222222222222223)"/><path d="M31.2 68.8c6.56 4.08 10.64 11.52 10.64 19.36 0 1.04-.8 1.84-1.84 1.84H0c-1.04 0-1.84-.8-1.84-1.84 0-9.76 6-18 14.4-21.2-3.6-2.4-5.92-6.4-5.92-10.96 0-7.36 6-13.28 13.36-13.28 7.44 0 13.44 5.92 13.44 13.28 0 4.56-2.32 8.56-5.92 10.96 1.28.48 2.48 1.12 3.68 1.84zm18.16-32.72C55.92 40.16 60 47.52 60 55.44c0 1.04-.8 1.84-1.84 1.84h-20V53.6h18.08c-.48-5.92-3.76-11.36-8.8-14.48-2.8-1.68-6-2.64-9.28-2.64-4.16 0-8.24 1.52-11.52 4.32l-2.4-2.72c2-1.68 4.16-2.96 6.48-3.84-3.6-2.4-5.92-6.4-5.92-10.96 0-7.36 6-13.28 13.44-13.28 7.36 0 13.36 5.92 13.36 13.28 0 4.56-2.32 8.56-5.92 10.96 1.28.48 2.56 1.12 3.68 1.84zM1.84 53.6v3.68h-20c-1.04 0-1.84-.8-1.84-1.84 0-9.76 6-18 14.4-21.2-3.6-2.4-6-6.4-6-10.96C-11.6 15.92-5.52 10 1.84 10c7.44 0 13.44 5.92 13.44 13.28 0 4.56-2.4 8.56-5.92 10.96 1.28.48 2.48 1.12 3.68 1.84.96.56 1.84 1.2 2.72 2l-2.4 2.72c-.72-.64-1.44-1.12-2.24-1.68-2.8-1.68-6-2.64-9.28-2.64-9.44 0-17.2 7.52-18.08 17.12zm.08 32.8h36.16c-.56-6-3.84-11.44-8.8-14.56-2.8-1.68-6-2.64-9.28-2.64-9.44 0-17.2 7.52-18.08 17.2zm-9.84-63.12c0 5.28 4.4 9.6 9.76 9.6 5.44 0 9.76-4.32 9.76-9.6 0-5.36-4.32-9.68-9.76-9.68-5.36 0-9.76 4.32-9.76 9.68zm36.32 0c0 5.28 4.4 9.6 9.84 9.6 5.36 0 9.76-4.32 9.76-9.6 0-5.36-4.4-9.68-9.76-9.68-5.44 0-9.84 4.32-9.84 9.68zM10.24 56c0 5.28 4.4 9.6 9.76 9.6 5.44 0 9.84-4.32 9.84-9.6 0-5.36-4.4-9.6-9.84-9.6-5.36 0-9.76 4.24-9.76 9.6z" stroke="#000" stroke-opacity="0" fill="#242f3e"/><path d="M-1.57 85.42l.23-1.77.07-.6 3.1-25.84-20.73-1.68 4.87-14.38 11.45-7.3-7.35-9.54 3.4-9.45 7.74-3.4 10.22 4.7 2.4 8.38-6.58 10 8.5 3.46 8.6.06 8.43-4-6.03-8.53 2.7-10.6 10.14-3.08 8.97 5.84 1.24 9.06-6.27 7.3L54.9 43l3.56 12.54-20.2 1.7 3.25 27.13-1.07 4H-1.03z" stroke="#000" stroke-opacity="0" fill-opacity="0"/><use xlink:href="#x" transform="matrix(1,0,0,1,-50,99) translate(46.839506172839506 14.222222222222223)"/><path d="M300 90c-22.08 0-40-17.92-40-40s17.92-40 40-40 40 17.92 40 40-17.92 40-40 40zm0-76.8c-20.32 0-36.8 16.48-36.8 36.8 0 20.32 16.48 36.8 36.8 36.8 20.32 0 36.8-16.48 36.8-36.8 0-20.32-16.48-36.8-36.8-36.8z" stroke="#fff" stroke-opacity="0" stroke-width="3" fill="#693cc5"/><path d="M323.86 61.2h-3.06v-6.4c0-.9-.7-1.6-1.58-1.6h-4.83v-6.4c0-.9-.73-1.58-1.6-1.58h-11.2v-4.8h11.2c.87 0 1.6-.76 1.6-1.6V24.4c0-.9-.73-1.6-1.6-1.6h-25.6c-.88 0-1.6.7-1.6 1.6V38.8c0 .84.72 1.6 1.6 1.6h11.2v4.8h-11.2c-.88 0-1.6.7-1.6 1.6v6.38h-4.78c-.9 0-1.63.7-1.63 1.6v6.4h-3.06c-.87 0-1.58.73-1.58 1.58v8.03c0 .9.7 1.6 1.58 1.6h7.84c.92 0 1.63-.7 1.63-1.6V62.8c0-.85-.7-1.6-1.62-1.6h-1.58v-4.8h8v4.8h-1.58c-.92 0-1.63.75-1.63 1.6v8.03c0 .9.7 1.6 1.62 1.6h8c.86 0 1.57-.7 1.57-1.6V62.8c0-.85-.72-1.6-1.58-1.6h-3.2v-6.4c0-.88-.73-1.58-1.64-1.58h-3.16v-4.8h22.36v4.8h-3.16c-.92 0-1.63.7-1.63 1.6v6.4h-3.22c-.86 0-1.58.73-1.58 1.58v8.03c0 .9.72 1.6 1.58 1.6h8c.9 0 1.63-.7 1.63-1.6V62.8c0-.85-.7-1.6-1.62-1.6h-1.58v-4.8h8v4.8h-1.74c-.86 0-1.58.75-1.58 1.6v8.03c0 .9.72 1.6 1.58 1.6h8.05c.88 0 1.6-.7 1.6-1.6V62.8v-.05c-.06-.84-.78-1.54-1.64-1.54zm-41.46 7.98h-4.63V64.4h4.63zm12.8-4.77v4.78h-4.8V64.4zM288.8 37.2V26.02h22.36v11.16zm20.78 32h-4.8V64.4h4.8zm12.63 0h-4.8V64.4h4.8z" stroke="#fff" stroke-opacity="0" stroke-width="3" fill="#693cc5"/><use xlink:href="#y" transform="matrix(1,0,0,1,230,99) translate(4.395061728395049 14.222222222222223)"/><use xlink:href="#z" transform="matrix(1,0,0,1,230,99) translate(96.09876543209877 14.222222222222223)"/><use xlink:href="#A" transform="matrix(1,0,0,1,230,99) translate(34.98765432098765 35.55555555555556)"/><path d="M520 40h80v80h-80V40z" stroke="#000" stroke-opacity="0" fill="url(#B)"/><path d="M548.54 78.07c-1.72-.77-2.84-2.53-2.84-4.45V58.74c0-.55.32-1 .8-1.2l13.7-5.02c.28-.05.6-.05.87 0l13.7 5c.5.23.82.67.82 1.23V73.6c0 1.94-1.14 3.7-2.86 4.47-2.32 1.05-6.35 2.32-12.1 2.32-5.75-.02-9.78-1.28-12.1-2.33zm28.87 10.85c.44.16.7.6.7 1.1v7.48c0 .5-.26.94-.7 1.16l-5 2.48c-.15.1-.36.1-.52.1-.22 0-.43 0-.6-.1l-4.4-2.2v4.84c0 .44-.27.88-.7 1.1l-5 2.53c-.16.06-.32.12-.54.12-.22 0-.38-.05-.54-.1l-5-2.54c-.43-.22-.7-.66-.7-1.1v-4.85l-4.4 2.2c-.17.12-.38.12-.6.12-.16 0-.37 0-.53-.1l-5-2.5c-.43-.2-.7-.65-.7-1.15v-7.48c0-.5.27-.94.7-1.1l5-2.53c.37-.18.75-.18 1.13-.02l4.94 2.54c.43.16.7.6.7 1.1v4.84l4.46-2.2c.32-.22.75-.22 1.08 0l4.46 2.2v-4.84c0-.5.27-.94.7-1.1l4.94-2.53c.38-.18.76-.18 1.13-.02zm10.12-13.82c0 6.4-13.87 9.85-26.88 9.85-13 0-26.88-3.46-26.88-9.85 0-3.08 3.33-5.78 9.46-7.6l.7 2.43c-4.73 1.37-7.7 3.4-7.7 5.17 0 3.47 10.44 7.32 24.42 7.32 13.98 0 24.4-3.85 24.4-7.32 0-1.76-2.95-3.8-7.68-5.17l.7-2.42c6.13 1.82 9.46 4.52 9.46 7.6zm-15.8.72c.86-.4 1.4-1.2 1.4-2.2V60.5l-11.24 4.07v13.25c4.67-.16 7.9-1.15 9.84-2.03zm-23.55-2.2c0 1 .54 1.8 1.4 2.2 1.93.88 5.16 1.87 9.83 2.03V64.6l-11.23-4.08zm12.47-18.55l-10.05 3.7 10.04 3.62 10.05-3.64zm-3.76 43.2V103l2.52 1.22v-4.68zm5 5.95l2.52-1.2v-4.75l-2.52 1.27zM545.7 92.05v4.68l2.47 1.27v-4.73zm5 5.95l2.47-1.27v-4.68l-2.48 1.22zm17.4-5.95v4.68l2.5 1.27v-4.73zm5 5.95l2.5-1.27v-4.68l-2.5 1.22zm-23.7-9.08l-2.2 1.1 2.2 1.1 2.2-1.1zm22.48 0l-2.2 1.1 2.2 1.1 2.2-1.1zm-11.24 6.22l-2.2 1.1 2.2 1.1 2.2-1.1z" stroke="#000" stroke-opacity="0" fill="#fff"/><use xlink:href="#C" transform="matrix(1,0,0,1,490,129) translate(12.938271604938265 14.222222222222223)"/><use xlink:href="#D" transform="matrix(1,0,0,1,490,129) translate(65.92592592592592 14.222222222222223)"/><use xlink:href="#E" transform="matrix(1,0,0,1,490,129) translate(31.55555555555555 35.55555555555556)"/><path d="M520 200h80v80h-80v-80z" stroke="#000" stroke-opacity="0" fill="url(#F)"/><path d="M548.54 238.07c-1.72-.77-2.84-2.53-2.84-4.45v-14.87c0-.55.32-1 .8-1.2l13.7-5.02c.28-.05.6-.05.87 0l13.7 5c.5.23.82.67.82 1.22v14.87c0 1.92-1.14 3.68-2.86 4.45-2.32 1.05-6.35 2.3-12.1 2.3s-9.78-1.25-12.1-2.3zm28.87 10.85c.44.16.7.6.7 1.1v7.48c0 .5-.26.94-.7 1.16l-5 2.47c-.15.12-.36.12-.52.12-.22 0-.43 0-.6-.12l-4.4-2.2v4.85c0 .44-.27.88-.7 1.1l-5 2.53c-.16.06-.32.12-.54.12-.22 0-.38-.06-.54-.1l-5-2.54c-.43-.22-.7-.66-.7-1.1v-4.85l-4.4 2.2c-.17.12-.38.12-.6.12-.16 0-.37 0-.53-.12l-5-2.47c-.43-.22-.7-.66-.7-1.16v-7.48c0-.5.27-.94.7-1.1l5-2.53c.37-.18.75-.18 1.13-.02l4.94 2.54c.43.16.7.6.7 1.1v4.84l4.46-2.2c.32-.22.75-.22 1.08 0l4.46 2.2v-4.84c0-.5.27-.94.7-1.1l4.94-2.53c.38-.18.76-.18 1.13-.02zm10.12-13.82c0 6.4-13.87 9.85-26.88 9.85-13 0-26.88-3.46-26.88-9.85 0-3.08 3.33-5.78 9.46-7.6l.7 2.43c-4.73 1.37-7.7 3.4-7.7 5.17 0 3.47 10.44 7.32 24.42 7.32 13.98 0 24.4-3.85 24.4-7.32 0-1.76-2.95-3.8-7.68-5.17l.7-2.42c6.13 1.82 9.46 4.52 9.46 7.6zm-15.8.72c.86-.4 1.4-1.2 1.4-2.2v-13.1l-11.24 4.07v13.25c4.67-.16 7.9-1.15 9.84-2.03zm-23.55-2.2c0 1 .54 1.8 1.4 2.2 1.93.88 5.16 1.87 9.83 2.03V224.6l-11.23-4.08zm12.47-18.55l-10.05 3.7 10.04 3.62 10.05-3.65zm-3.76 43.2V263l2.52 1.22v-4.68zm5 5.95l2.52-1.2v-4.75l-2.52 1.27zm-16.18-12.17v4.68l2.47 1.27v-4.74zm5 5.95l2.47-1.27v-4.68l-2.48 1.2zm17.4-5.95v4.68l2.5 1.27v-4.74zm5 5.95l2.5-1.27v-4.68l-2.5 1.2zm-23.7-9.08l-2.2 1.1 2.2 1.1 2.2-1.1zm22.48 0l-2.2 1.1 2.2 1.1 2.2-1.1zm-11.24 6.22l-2.2 1.1 2.2 1.1 2.2-1.1z" stroke="#000" stroke-opacity="0" fill="#fff"/><use xlink:href="#G" transform="matrix(1,0,0,1,490,289) translate(6.024691358024683 14.222222222222223)"/><use xlink:href="#D" transform="matrix(1,0,0,1,490,289) translate(72.8395061728395 14.222222222222223)"/><use xlink:href="#E" transform="matrix(1,0,0,1,490,289) translate(31.55555555555555 35.55555555555556)"/><path d="M860 50c0 22.08-17.92 40-40 40s-40-17.92-40-40 17.92-40 40-40 40 17.92 40 40zm-3.68 0c0-20.08-16.24-36.32-36.32-36.32-20.08 0-36.32 16.24-36.32 36.32 0 20.08 16.24 36.32 36.32 36.32 20.08 0 36.32-16.24 36.32-36.32zm-15.44-19.36v24.32c0 8.24-4.32 23.92-20.88 23.92-8.64 0-14.96-4.48-18.4-12.88-1.84-4.48-2.32-8.88-2.48-11.12l3.68-.24c.08 1.6.48 5.84 2.16 10 2.88 7.04 7.92 10.56 15.04 10.56 17.04 0 17.28-19.36 17.28-20.24V31.84L820 24.96l-17.28 6.88V45.2h-3.6V30.64c0-.72.4-1.44 1.12-1.68l19.12-7.68c.4-.16.88-.16 1.28 0l19.12 7.68c.72.24 1.12.96 1.12 1.68zM805.44 54.8h3.68v.64c.24 1.36 2.88 12.48 10.88 12.48s10.64-11.12 10.88-12.48V37.6L820 33.2l-10.88 4.4v7.6h-3.68v-8.8c0-.8.48-1.44 1.12-1.76l12.8-5.12c.4-.16.88-.16 1.28 0l12.8 5.12c.64.32 1.12.96 1.12 1.76v19.2c0 .08 0 .24-.08.32-.08.64-2.88 15.6-14.48 15.6-11.6 0-14.4-14.96-14.56-15.6v-.32zm8.48 1.84l4.88-4.8h-30.64v-3.68h30.64l-4.88-4.8 2.56-2.64 8 8c.72.72.72 1.84 0 2.56l-8 8z" stroke="#000" stroke-opacity="0" fill="#4d27aa"/><use xlink:href="#H" transform="matrix(1,0,0,1,750,99) translate(14.246913580246911 14.222222222222223)"/><use xlink:href="#I" transform="matrix(1,0,0,1,750,99) translate(55.67901234567901 14.222222222222223)"/><path d="M356.38 50h86.24" stroke="#3a414a" fill="none"/><path d="M341.62 50l14.26-4.63v9.27zM457.38 50l-14.26 4.63v-9.27z" stroke="#3a414a" fill="#3a414a"/><path d="M820-6.38v-197.24" stroke="#3a414a" fill="none"/><path d="M820 8.38l-4.63-14.26h9.26zM820-218.38l4.63 14.26h-9.26z" stroke="#3a414a" fill="#3a414a"/><path d="M763.62 50h-47.24" stroke="#3a414a" fill="none"/><path d="M778.38 50l-14.26 4.63v-9.27zM701.62 50l14.26-4.63v9.27z" stroke="#3a414a" fill="#3a414a"/><path d="M876.38-300H904a6 6 0 0 1 6 6V44a6 6 0 0 0 6 6h41.9a.1.1 0 0 0 .1-.1.1.1 0 0 1 .1-.07h4.52" stroke="#3a414a" fill="none"/><path d="M861.62-300l14.26-4.63v9.26zM977.38 49.83l-14.26 4.63V45.2z" stroke="#3a414a" fill="#3a414a"/><path d="M820 240c22.08 0 40 17.92 40 40s-17.92 40-40 40-40-17.92-40-40 17.92-40 40-40zm0 76.32c20.08 0 36.32-16.24 36.32-36.32 0-20.08-16.24-36.32-36.32-36.32-20.08 0-36.32 16.24-36.32 36.32 0 20.08 16.24 36.32 36.32 36.32zm.4-59.52c7.52 0 14.8 2.24 19.84 6.32.4.32.64.88.64 1.36v37.76c0 1.04-.8 1.84-1.76 1.84h-6.4c-1.04 0-1.84-.8-1.84-1.84v-32.8c-3.12-1.44-6.24-2.64-10.48-2.64-4.48 0-7.84 1.28-11.36 2.96v32.48c0 1.04-.8 1.84-1.84 1.84h-6.32c-.96 0-1.76-.8-1.76-1.84V265.2c0-.48.16-.96.56-1.36 5.12-4.48 12.72-7.04 20.72-7.04zm16.88 43.68v-35.04c-4.4-3.2-10.48-5.04-16.88-5.04-6.8 0-13.2 2.08-17.68 5.68v34.4h2.64v-31.84c0-.64.4-1.28 1.04-1.6 4.16-2.08 8.32-3.92 14-3.92 5.44 0 9.2 1.76 12.88 3.36l.16.08c.64.32 1.12.96 1.12 1.68v32.24z" stroke="#000" stroke-opacity="0" fill="#4d27aa"/><use xlink:href="#J" transform="matrix(1,0,0,1,750,329) translate(19.185185185185176 14.222222222222223)"/><use xlink:href="#K" transform="matrix(1,0,0,1,750,329) translate(60.61728395061728 14.222222222222223)"/><use xlink:href="#L" transform="matrix(1,0,0,1,750,329) translate(34.96296296296296 35.55555555555556)"/><path d="M780 520h80v80h-80v-80z" stroke="#000" stroke-opacity="0" fill="url(#M)"/><path d="M833.87 571.17c0 .28-.05.5-.05.72v7.47c0 4.52-8.15 8.15-18.1 8.15-8.65 0-17.4-2.37-18.1-6.88h-.1V540.2c0-5.02 9.37-7.72 18.2-7.72 4.9 0 9.63.83 12.97 2.2l-.96 2.3c-3.02-1.25-7.43-1.97-12.02-1.97-9.73 0-15.68 3.04-15.68 5.2 0 2.13 5.95 5.16 15.68 5.16H816.44l.1 2.48c-.28.05-.55.05-.82.05-6.04 0-12.35-1.27-15.68-3.7v5.51c0 .67.6 1.44 1.67 2.15 2.53 1.6 7 2.7 11.94 2.92l-.1 2.53c-5.16-.22-9.67-1.32-12.6-3.02-.4.38-.9 1.32-.9 1.8 0 2.2 5.95 5.2 15.68 5.2.9 0 1.8 0 2.7-.07l.18 2.5c-.95.1-1.94.1-2.88.1-6.04 0-12.35-1.27-15.68-3.63v4.56c0 .72.6 1.5 1.67 2.2 2.85 1.82 8.2 2.98 14.02 2.98h.4v2.54h-.4c-6 0-12.35-1.27-15.68-3.2-.27.28-.18.72-.1 1.22.06.27.1.5.1.7 0 2.22 5.95 5.2 15.68 5.2 9.68 0 15.67-3 15.67-5.2 0-.7-.78-1.42-1.4-1.9-.5.32-1.04.6-1.72.87l-.94-2.3c.67-.3 1.26-.62 1.7-.9 1.36-.93 2.26-2.25 2.26-2.75h2.52c0 1.2-.8 2.48-1.8 3.47 1.5 1.32 1.85 2.64 1.85 3.52zm8.33-19.98l-22.52 22.72c-.23.28-.6.4-.9.4-.23 0-.45-.07-.63-.18-.5-.32-.72-.93-.54-1.48l5.73-17.28h-5.8c-.42 0-.82-.22-1.05-.6-.22-.4-.27-.83-.1-1.22l6.27-13.92c.23-.44.63-.72 1.13-.72h13.78c.4 0 .8.22 1.04.55.22.33.27.77.13 1.16l-3.1 8.42h5.67c.5 0 1 .27 1.17.77.18.44.1 1-.27 1.37zm-3.92.38h-4.46c-.45 0-.8-.22-1.03-.55-.24-.33-.33-.77-.15-1.16l3.1-8.42H824.6l-5.1 11.4h5.54c.4 0 .76.16 1.04.5.22.32.27.76.13 1.15l-4.54 13.87zm-6.98 23.72c-3.38 2.37-9.64 3.58-15.58 3.58-6.04 0-12.35-1.27-15.68-3.63v4.73c0 2.1 5.95 5 15.68 5 9.36 0 15.58-3.35 15.58-5.6zm-29.86-25.15l1.17-2.26c.82.43 1.86.82 2.98 1.2l-.67 2.42c-1.3-.38-2.47-.88-3.46-1.37zm0 30.33l1.17-2.2c.82.43 1.86.82 2.98 1.15l-.67 2.42c-1.3-.38-2.47-.83-3.46-1.38zm3.47-13.82c-1.3-.38-2.47-.83-3.46-1.32l1.17-2.26c.82.44 1.86.83 2.98 1.16z" stroke="#000" stroke-opacity="0" fill="#fff"/><g><use xlink:href="#N" transform="matrix(1,0,0,1,750,609) translate(18.740740740740733 14.222222222222223)"/><use xlink:href="#O" transform="matrix(1,0,0,1,750,609) translate(78.88888888888889 14.222222222222223)"/></g><path d="M962.62 280h-86.24" stroke="#3a414a" fill="none"/><path d="M977.38 280l-14.26 4.63v-9.26zM861.62 280l14.26-4.63v9.26z" stroke="#3a414a" fill="#3a414a"/><path d="M820 396.38v107.24" stroke="#3a414a" fill="none"/><path d="M820 381.62l4.63 14.26h-9.26zM820 518.38l-4.63-14.26h9.26z" stroke="#3a414a" fill="#3a414a"/><path d="M75.73 50h167.9" stroke="#3a414a" fill="none"/><path d="M60.96 50l14.27-4.63v9.27zM258.38 50l-14.26 4.63v-9.27z" stroke="#3a414a" fill="#3a414a"/><path d="M715.2-337.1c2.64 0 4.8 2.14 4.8 4.74v64.72c0 2.6-2.16 4.75-4.8 4.75h-50.4c-2.64 0-4.8-2.14-4.8-4.74v-64.72c0-2.6 2.16-4.75 4.8-4.75zm1.38 69.46v-64.72c0-.75-.6-1.4-1.38-1.4h-50.4c-.78 0-1.38.65-1.38 1.4v64.72c0 .75.6 1.4 1.38 1.4h50.4c.78 0 1.38-.65 1.38-1.4zm-32.82-17.9l-5.52 5.43 5.52 5.5-2.4 2.36-5.52-5.42-5.46 5.42-2.46-2.37 5.52-5.5-5.52-5.43 2.46-2.37 5.46 5.42 5.52-5.42zm.54-24.48l2.46 2.38-11.94 11.8c-.36.3-.78.52-1.2.52-.42 0-.9-.23-1.2-.52l-5.94-5.94 2.4-2.38 4.74 4.75zm0-19.23l2.46 2.38-11.94 11.8c-.36.37-.78.52-1.2.52-.42 0-.9-.15-1.2-.52l-5.94-5.86 2.4-2.38 4.74 4.67z" stroke="#000" stroke-opacity="0" fill="#bf0816"/><g><use xlink:href="#P" transform="matrix(1,0,0,1,630,-253.88659793814435) translate(12.524999999999999 14.4)"/><use xlink:href="#Q" transform="matrix(1,0,0,1,630,-253.88659793814435) translate(75.525 14.4)"/><use xlink:href="#R" transform="matrix(1,0,0,1,630,-253.88659793814435) translate(15.575000000000003 36)"/><use xlink:href="#S" transform="matrix(1,0,0,1,630,-253.88659793814435) translate(56.475 36)"/></g><path d="M779.5-300h-59" stroke="#3a414a" fill="none"/><path d="M780-299.52h-.5v-.96h.5zM720.5-299.52h-.5v-.96h.5z" stroke="#3a414a" stroke-width=".05" fill="#3a414a"/><path d="M975.2 522.9c2.64 0 4.8 2.14 4.8 4.74v64.72c0 2.6-2.16 4.75-4.8 4.75h-50.4c-2.64 0-4.8-2.14-4.8-4.74v-64.72c0-2.6 2.16-4.75 4.8-4.75zm1.38 69.46v-64.72c0-.75-.6-1.4-1.38-1.4h-50.4c-.78 0-1.38.65-1.38 1.4v64.72c0 .75.6 1.4 1.38 1.4h50.4c.78 0 1.38-.65 1.38-1.4zm-32.82-17.9l-5.52 5.43 5.52 5.5-2.4 2.36-5.52-5.42-5.46 5.42-2.46-2.37 5.52-5.5-5.52-5.43 2.46-2.37 5.46 5.42 5.52-5.42zm.54-24.48l2.46 2.38-11.94 11.8c-.36.3-.78.52-1.2.52-.42 0-.9-.23-1.2-.52l-5.94-5.94 2.4-2.38 4.74 4.75zm0-19.23l2.46 2.38-11.94 11.8c-.36.37-.78.52-1.2.52-.42 0-.9-.15-1.2-.52l-5.94-5.86 2.4-2.38 4.74 4.67z" stroke="#000" stroke-opacity="0" fill="#bf0816"/><path d="M860.5 560h59" stroke="#3a414a" fill="none"/><path d="M860.5 560.48h-.5v-.96h.5zM920 560.48h-.5v-.96h.5z" stroke="#3a414a" stroke-width=".05" fill="#3a414a"/><defs><path d="M185-189c-5-48-123-54-124 2 14 75 158 14 163 119 3 78-121 87-175 55-17-10-28-26-33-46l33-7c5 56 141 63 141-1 0-78-155-14-162-118-5-82 145-84 179-34 5 7 8 16 11 25" id="T"/><path d="M100-194c63 0 86 42 84 106H49c0 40 14 67 53 68 26 1 43-12 49-29l28 8c-11 28-37 45-77 45C44 4 14-33 15-96c1-61 26-98 85-98zm52 81c6-60-76-77-97-28-3 7-6 17-6 28h103" id="U"/><path d="M114-163C36-179 61-72 57 0H25l-1-190h30c1 12-1 29 2 39 6-27 23-49 58-41v29" id="V"/><path d="M108 0H70L1-190h34L89-25l56-165h34" id="W"/><path d="M24 0v-261h32V0H24" id="X"/><path d="M135-143c-3-34-86-38-87 0 15 53 115 12 119 90S17 21 10-45l28-5c4 36 97 45 98 0-10-56-113-15-118-90-4-57 82-63 122-42 12 7 21 19 24 35" id="Y"/><g id="a"><use transform="matrix(0.04938271604938272,0,0,0.04938271604938272,0,0)" xlink:href="#T"/><use transform="matrix(0.04938271604938272,0,0,0.04938271604938272,11.851851851851853,0)" xlink:href="#U"/><use transform="matrix(0.04938271604938272,0,0,0.04938271604938272,21.7283950617284,0)" xlink:href="#V"/><use transform="matrix(0.04938271604938272,0,0,0.04938271604938272,27.604938271604947,0)" xlink:href="#W"/><use transform="matrix(0.04938271604938272,0,0,0.04938271604938272,36.49382716049384,0)" xlink:href="#U"/><use transform="matrix(0.04938271604938272,0,0,0.04938271604938272,46.37037037037038,0)" xlink:href="#V"/><use transform="matrix(0.04938271604938272,0,0,0.04938271604938272,52.24691358024693,0)" xlink:href="#X"/><use transform="matrix(0.04938271604938272,0,0,0.04938271604938272,56.14814814814817,0)" xlink:href="#U"/><use transform="matrix(0.04938271604938272,0,0,0.04938271604938272,66.02469135802471,0)" xlink:href="#Y"/><use transform="matrix(0.04938271604938272,0,0,0.04938271604938272,74.9135802469136,0)" xlink:href="#Y"/></g><path d="M127-220V0H93v-220H8v-28h204v28h-85" id="Z"/><path d="M100-194c62-1 85 37 85 99 1 63-27 99-86 99S16-35 15-95c0-66 28-99 85-99zM99-20c44 1 53-31 53-75 0-43-8-75-51-75s-53 32-53 75 10 74 51 75" id="aa"/><path d="M85-194c31 0 48 13 60 33l-1-100h32l1 261h-30c-2-10 0-23-3-31C134-8 116 4 85 4 32 4 16-35 15-94c0-66 23-100 70-100zm9 24c-40 0-46 34-46 75 0 40 6 74 45 74 42 0 51-32 51-76 0-42-9-74-50-73" id="ab"/><g id="b"><use transform="matrix(0.04938271604938272,0,0,0.04938271604938272,0,0)" xlink:href="#Z"/><use transform="matrix(0.04938271604938272,0,0,0.04938271604938272,8.839506172839506,0)" xlink:href="#aa"/><use transform="matrix(0.04938271604938272,0,0,0.04938271604938272,18.71604938271605,0)" xlink:href="#ab"/><use transform="matrix(0.04938271604938272,0,0,0.04938271604938272,28.592592592592595,0)" xlink:href="#aa"/></g><path d="M205 0l-28-72H64L36 0H1l101-248h38L239 0h-34zm-38-99l-47-123c-12 45-31 82-46 123h93" id="ac"/><path d="M115-194c55 1 70 41 70 98S169 2 115 4C84 4 66-9 55-30l1 105H24l-1-265h31l2 30c10-21 28-34 59-34zm-8 174c40 0 45-34 45-75s-6-73-45-74c-42 0-51 32-51 76 0 43 10 73 51 73" id="ad"/><path d="M24-231v-30h32v30H24zM24 0v-190h32V0H24" id="ae"/><path d="M96-169c-40 0-48 33-48 73s9 75 48 75c24 0 41-14 43-38l32 2c-6 37-31 61-74 61-59 0-76-41-82-99-10-93 101-131 147-64 4 7 5 14 7 22l-32 3c-4-21-16-35-41-35" id="af"/><path d="M141-36C126-15 110 5 73 4 37 3 15-17 15-53c-1-64 63-63 125-63 3-35-9-54-41-54-24 1-41 7-42 31l-33-3c5-37 33-52 76-52 45 0 72 20 72 64v82c-1 20 7 32 28 27v20c-31 9-61-2-59-35zM48-53c0 20 12 33 32 33 41-3 63-29 60-74-43 2-92-5-92 41" id="ag"/><path d="M59-47c-2 24 18 29 38 22v24C64 9 27 4 27-40v-127H5v-23h24l9-43h21v43h35v23H59v120" id="ah"/><path d="M117-194c89-4 53 116 60 194h-32v-121c0-31-8-49-39-48C34-167 62-67 57 0H25l-1-190h30c1 10-1 24 2 32 11-22 29-35 61-36" id="ai"/><g id="c"><use transform="matrix(0.04938271604938272,0,0,0.04938271604938272,0,0)" xlink:href="#ac"/><use transform="matrix(0.04938271604938272,0,0,0.04938271604938272,11.851851851851853,0)" xlink:href="#ad"/><use transform="matrix(0.04938271604938272,0,0,0.04938271604938272,21.7283950617284,0)" xlink:href="#ad"/><use transform="matrix(0.04938271604938272,0,0,0.04938271604938272,31.60493827160494,0)" xlink:href="#X"/><use transform="matrix(0.04938271604938272,0,0,0.04938271604938272,35.50617283950618,0)" xlink:href="#ae"/><use transform="matrix(0.04938271604938272,0,0,0.04938271604938272,39.40740740740741,0)" xlink:href="#af"/><use transform="matrix(0.04938271604938272,0,0,0.04938271604938272,48.296296296296305,0)" xlink:href="#ag"/><use transform="matrix(0.04938271604938272,0,0,0.04938271604938272,58.17283950617284,0)" xlink:href="#ah"/><use transform="matrix(0.04938271604938272,0,0,0.04938271604938272,63.111111111111114,0)" xlink:href="#ae"/><use transform="matrix(0.04938271604938272,0,0,0.04938271604938272,67.01234567901236,0)" xlink:href="#aa"/><use transform="matrix(0.04938271604938272,0,0,0.04938271604938272,76.8888888888889,0)" xlink:href="#ai"/></g><path d="M137 0h-34L2-248h35l83 218 83-218h36" id="aj"/><path d="M84 4C-5 8 30-112 23-190h32v120c0 31 7 50 39 49 72-2 45-101 50-169h31l1 190h-30c-1-10 1-25-2-33-11 22-28 36-60 37" id="ak"/><g id="d"><use transform="matrix(0.04938271604938272,0,0,0.04938271604938272,0,0)" xlink:href="#aj"/><use transform="matrix(0.04938271604938272,0,0,0.04938271604938272,11.506172839506174,0)" xlink:href="#ae"/><use transform="matrix(0.04938271604938272,0,0,0.04938271604938272,15.407407407407408,0)" xlink:href="#V"/><use transform="matrix(0.04938271604938272,0,0,0.04938271604938272,21.283950617283953,0)" xlink:href="#ah"/><use transform="matrix(0.04938271604938272,0,0,0.04938271604938272,26.222222222222225,0)" xlink:href="#ak"/><use transform="matrix(0.04938271604938272,0,0,0.04938271604938272,36.09876543209877,0)" xlink:href="#ag"/><use transform="matrix(0.04938271604938272,0,0,0.04938271604938272,45.97530864197532,0)" xlink:href="#X"/></g><path d="M30-248c87 1 191-15 191 75 0 78-77 80-158 76V0H30v-248zm33 125c57 0 124 11 124-50 0-59-68-47-124-48v98" id="al"/><g id="e"><use transform="matrix(0.04938271604938272,0,0,0.04938271604938272,0,0)" xlink:href="#al"/><use transform="matrix(0.04938271604938272,0,0,0.04938271604938272,11.851851851851853,0)" xlink:href="#V"/><use transform="matrix(0.04938271604938272,0,0,0.04938271604938272,17.728395061728396,0)" xlink:href="#ae"/><use transform="matrix(0.04938271604938272,0,0,0.04938271604938272,21.62962962962963,0)" xlink:href="#W"/><use transform="matrix(0.04938271604938272,0,0,0.04938271604938272,30.518518518518523,0)" xlink:href="#ag"/><use transform="matrix(0.04938271604938272,0,0,0.04938271604938272,40.39506172839506,0)" xlink:href="#ah"/><use transform="matrix(0.04938271604938272,0,0,0.04938271604938272,45.333333333333336,0)" xlink:href="#U"/></g><path d="M212-179c-10-28-35-45-73-45-59 0-87 40-87 99 0 60 29 101 89 101 43 0 62-24 78-52l27 14C228-24 195 4 139 4 59 4 22-46 18-125c-6-104 99-153 187-111 19 9 31 26 39 46" id="am"/><g id="f"><use transform="matrix(0.04938271604938272,0,0,0.04938271604938272,0,0)" xlink:href="#am"/><use transform="matrix(0.04938271604938272,0,0,0.04938271604938272,12.790123456790125,0)" xlink:href="#X"/><use transform="matrix(0.04938271604938272,0,0,0.04938271604938272,16.69135802469136,0)" xlink:href="#aa"/><use transform="matrix(0.04938271604938272,0,0,0.04938271604938272,26.567901234567902,0)" xlink:href="#ak"/><use transform="matrix(0.04938271604938272,0,0,0.04938271604938272,36.44444444444445,0)" xlink:href="#ab"/></g><path d="M115-194c53 0 69 39 70 98 0 66-23 100-70 100C84 3 66-7 56-30L54 0H23l1-261h32v101c10-23 28-34 59-34zm-8 174c40 0 45-34 45-75 0-40-5-75-45-74-42 0-51 32-51 76 0 43 10 73 51 73" id="an"/><g id="g"><use transform="matrix(0.04938271604938272,0,0,0.04938271604938272,0,0)" xlink:href="#al"/><use transform="matrix(0.04938271604938272,0,0,0.04938271604938272,11.851851851851853,0)" xlink:href="#ak"/><use transform="matrix(0.04938271604938272,0,0,0.04938271604938272,21.7283950617284,0)" xlink:href="#an"/><use transform="matrix(0.04938271604938272,0,0,0.04938271604938272,31.60493827160494,0)" xlink:href="#X"/><use transform="matrix(0.04938271604938272,0,0,0.04938271604938272,35.50617283950618,0)" xlink:href="#ae"/><use transform="matrix(0.04938271604938272,0,0,0.04938271604938272,39.40740740740741,0)" xlink:href="#af"/></g><g id="h"><use transform="matrix(0.04938271604938272,0,0,0.04938271604938272,0,0)" xlink:href="#T"/><use transform="matrix(0.04938271604938272,0,0,0.04938271604938272,11.851851851851853,0)" xlink:href="#ak"/><use transform="matrix(0.04938271604938272,0,0,0.04938271604938272,21.7283950617284,0)" xlink:href="#an"/><use transform="matrix(0.04938271604938272,0,0,0.04938271604938272,31.60493827160494,0)" xlink:href="#ai"/><use transform="matrix(0.04938271604938272,0,0,0.04938271604938272,41.48148148148149,0)" xlink:href="#U"/><use transform="matrix(0.04938271604938272,0,0,0.04938271604938272,51.35802469135803,0)" xlink:href="#ah"/></g><g id="i"><use transform="matrix(0.04938271604938272,0,0,0.04938271604938272,0,0)" xlink:href="#al"/><use transform="matrix(0.04938271604938272,0,0,0.04938271604938272,11.851851851851853,0)" xlink:href="#V"/><use transform="matrix(0.04938271604938272,0,0,0.04938271604938272,17.728395061728396,0)" xlink:href="#ae"/><use transform="matrix(0.04938271604938272,0,0,0.04938271604938272,21.62962962962963,0)" xlink:href="#W"/><use transform="matrix(0.04938271604938272,0,0,0.04938271604938272,30.518518518518523,0)" xlink:href="#ag"/><use transform="matrix(0.04938271604938272,0,0,0.04938271604938272,40.39506172839506,0)" xlink:href="#ah"/><use transform="matrix(0.04938271604938272,0,0,0.04938271604938272,45.333333333333336,0)" xlink:href="#U"/></g><path d="M177-190C167-65 218 103 67 71c-23-6-38-20-44-43l32-5c15 47 100 32 89-28v-30C133-14 115 1 83 1 29 1 15-40 15-95c0-56 16-97 71-98 29-1 48 16 59 35 1-10 0-23 2-32h30zM94-22c36 0 50-32 50-73 0-42-14-75-50-75-39 0-46 34-46 75s6 73 46 73" id="ao"/><g id="j"><use transform="matrix(0.04938271604938272,0,0,0.04938271604938272,0,0)" xlink:href="#Z"/><use transform="matrix(0.04938271604938272,0,0,0.04938271604938272,8.839506172839506,0)" xlink:href="#ag"/><use transform="matrix(0.04938271604938272,0,0,0.04938271604938272,18.71604938271605,0)" xlink:href="#V"/><use transform="matrix(0.04938271604938272,0,0,0.04938271604938272,24.592592592592595,0)" xlink:href="#ao"/><use transform="matrix(0.04938271604938272,0,0,0.04938271604938272,34.46913580246914,0)" xlink:href="#U"/><use transform="matrix(0.04938271604938272,0,0,0.04938271604938272,44.345679012345684,0)" xlink:href="#ah"/></g><path d="M143 4C61 4 22-44 18-125c-5-107 100-154 193-111 17 8 29 25 37 43l-32 9c-13-25-37-40-76-40-61 0-88 39-88 99 0 61 29 100 91 101 35 0 62-11 79-27v-45h-74v-28h105v86C228-13 192 4 143 4" id="ap"/><g id="k"><use transform="matrix(0.04938271604938272,0,0,0.04938271604938272,0,0)" xlink:href="#ap"/><use transform="matrix(0.04938271604938272,0,0,0.04938271604938272,13.827160493827162,0)" xlink:href="#V"/><use transform="matrix(0.04938271604938272,0,0,0.04938271604938272,19.703703703703706,0)" xlink:href="#aa"/><use transform="matrix(0.04938271604938272,0,0,0.04938271604938272,29.58024691358025,0)" xlink:href="#ak"/><use transform="matrix(0.04938271604938272,0,0,0.04938271604938272,39.4567901234568,0)" xlink:href="#ad"/><use transform="matrix(0.04938271604938272,0,0,0.04938271604938272,49.33333333333334,0)" xlink:href="#Y"/></g><path d="M30 0v-248h33v221h125V0H30" id="aq"/><path d="M210-169c-67 3-38 105-44 169h-31v-121c0-29-5-50-35-48C34-165 62-65 56 0H25l-1-190h30c1 10-1 24 2 32 10-44 99-50 107 0 11-21 27-35 58-36 85-2 47 119 55 194h-31v-121c0-29-5-49-35-48" id="ar"/><g id="l"><use transform="matrix(0.04938271604938272,0,0,0.04938271604938272,0,0)" xlink:href="#aq"/><use transform="matrix(0.04938271604938272,0,0,0.04938271604938272,9.876543209876544,0)" xlink:href="#ag"/><use transform="matrix(0.04938271604938272,0,0,0.04938271604938272,19.75308641975309,0)" xlink:href="#ar"/><use transform="matrix(0.04938271604938272,0,0,0.04938271604938272,34.51851851851852,0)" xlink:href="#an"/><use transform="matrix(0.04938271604938272,0,0,0.04938271604938272,44.39506172839506,0)" xlink:href="#ab"/><use transform="matrix(0.04938271604938272,0,0,0.04938271604938272,54.27160493827161,0)" xlink:href="#ag"/></g><path d="M63-220v92h138v28H63V0H30v-248h175v28H63" id="as"/><g id="m"><use transform="matrix(0.04938271604938272,0,0,0.04938271604938272,0,0)" xlink:href="#as"/><use transform="matrix(0.04938271604938272,0,0,0.04938271604938272,10.814814814814815,0)" xlink:href="#ak"/><use transform="matrix(0.04938271604938272,0,0,0.04938271604938272,20.69135802469136,0)" xlink:href="#ai"/><use transform="matrix(0.04938271604938272,0,0,0.04938271604938272,30.567901234567906,0)" xlink:href="#af"/><use transform="matrix(0.04938271604938272,0,0,0.04938271604938272,39.4567901234568,0)" xlink:href="#ah"/><use transform="matrix(0.04938271604938272,0,0,0.04938271604938272,44.39506172839507,0)" xlink:href="#ae"/><use transform="matrix(0.04938271604938272,0,0,0.04938271604938272,48.296296296296305,0)" xlink:href="#aa"/><use transform="matrix(0.04938271604938272,0,0,0.04938271604938272,58.17283950617284,0)" xlink:href="#ai"/><use transform="matrix(0.04938271604938272,0,0,0.04938271604938272,68.0493827160494,0)" xlink:href="#Y"/></g><g id="n"><use transform="matrix(0.04938271604938272,0,0,0.04938271604938272,0,0)" xlink:href="#al"/><use transform="matrix(0.04938271604938272,0,0,0.04938271604938272,11.851851851851853,0)" xlink:href="#ae"/><use transform="matrix(0.04938271604938272,0,0,0.04938271604938272,15.753086419753087,0)" xlink:href="#ad"/><use transform="matrix(0.04938271604938272,0,0,0.04938271604938272,25.629629629629633,0)" xlink:href="#U"/><use transform="matrix(0.04938271604938272,0,0,0.04938271604938272,35.50617283950618,0)" xlink:href="#X"/><use transform="matrix(0.04938271604938272,0,0,0.04938271604938272,39.40740740740741,0)" xlink:href="#ae"/><use transform="matrix(0.04938271604938272,0,0,0.04938271604938272,43.308641975308646,0)" xlink:href="#ai"/><use transform="matrix(0.04938271604938272,0,0,0.04938271604938272,53.18518518518519,0)" xlink:href="#U"/></g><path d="M87 75C49 33 22-17 22-94c0-76 28-126 65-167h31c-38 41-64 92-64 168S80 34 118 75H87" id="at"/><path d="M266 0h-40l-56-210L115 0H75L2-248h35L96-30l15-64 43-154h32l59 218 59-218h35" id="au"/><g id="o"><use transform="matrix(0.04938271604938272,0,0,0.04938271604938272,0,0)" xlink:href="#at"/><use transform="matrix(0.04938271604938272,0,0,0.04938271604938272,5.8765432098765435,0)" xlink:href="#ac"/><use transform="matrix(0.04938271604938272,0,0,0.04938271604938272,17.08641975308642,0)" xlink:href="#au"/><use transform="matrix(0.04938271604938272,0,0,0.04938271604938272,33.827160493827165,0)" xlink:href="#T"/></g><path d="M33-261c38 41 65 92 65 168S71 34 33 75H2C39 34 66-17 66-93S39-220 2-261h31" id="av"/><g id="p"><use transform="matrix(0.04938271604938272,0,0,0.04938271604938272,0,0)" xlink:href="#am"/><use transform="matrix(0.04938271604938272,0,0,0.04938271604938272,12.790123456790125,0)" xlink:href="#aa"/><use transform="matrix(0.04938271604938272,0,0,0.04938271604938272,22.66666666666667,0)" xlink:href="#ab"/><use transform="matrix(0.04938271604938272,0,0,0.04938271604938272,32.543209876543216,0)" xlink:href="#U"/><use transform="matrix(0.04938271604938272,0,0,0.04938271604938272,42.41975308641976,0)" xlink:href="#al"/><use transform="matrix(0.04938271604938272,0,0,0.04938271604938272,54.27160493827161,0)" xlink:href="#ae"/><use transform="matrix(0.04938271604938272,0,0,0.04938271604938272,58.17283950617284,0)" xlink:href="#ad"/><use transform="matrix(0.04938271604938272,0,0,0.04938271604938272,68.0493827160494,0)" xlink:href="#U"/><use transform="matrix(0.04938271604938272,0,0,0.04938271604938272,77.92592592592594,0)" xlink:href="#X"/><use transform="matrix(0.04938271604938272,0,0,0.04938271604938272,81.82716049382718,0)" xlink:href="#ae"/><use transform="matrix(0.04938271604938272,0,0,0.04938271604938272,85.72839506172842,0)" xlink:href="#ai"/><use transform="matrix(0.04938271604938272,0,0,0.04938271604938272,95.60493827160496,0)" xlink:href="#U"/><use transform="matrix(0.04938271604938272,0,0,0.04938271604938272,105.48148148148151,0)" xlink:href="#av"/></g><linearGradient gradientUnits="userSpaceOnUse" id="q" x1="100" y1="760" x2="180" y2="680"><stop offset="0%" stop-color="#2e27ad"/><stop offset="100%" stop-color="#527fff"/></linearGradient><linearGradient gradientUnits="userSpaceOnUse" id="r" x1="780" y1="-260" x2="860" y2="-340"><stop offset="0%" stop-color="#b0084d"/><stop offset="100%" stop-color="#ff4f8b"/></linearGradient><path d="M33 0v-248h34V0H33" id="aw"/><g id="s"><use transform="matrix(0.04938271604938272,0,0,0.04938271604938272,0,0)" xlink:href="#ac"/><use transform="matrix(0.04938271604938272,0,0,0.04938271604938272,11.851851851851853,0)" xlink:href="#al"/><use transform="matrix(0.04938271604938272,0,0,0.04938271604938272,23.703703703703706,0)" xlink:href="#aw"/></g><path d="M206 0h-36l-40-164L89 0H53L-1-190h32L70-26l43-164h34l41 164 42-164h31" id="ax"/><path d="M179-190L93 31C79 59 56 82 12 73V49c39 6 53-20 64-50L1-190h34L92-34l54-156h33" id="ay"/><g id="t"><use transform="matrix(0.04938271604938272,0,0,0.04938271604938272,0,0)" xlink:href="#ap"/><use transform="matrix(0.04938271604938272,0,0,0.04938271604938272,13.827160493827162,0)" xlink:href="#ag"/><use transform="matrix(0.04938271604938272,0,0,0.04938271604938272,23.703703703703706,0)" xlink:href="#ah"/><use transform="matrix(0.04938271604938272,0,0,0.04938271604938272,28.641975308641978,0)" xlink:href="#U"/><use transform="matrix(0.04938271604938272,0,0,0.04938271604938272,38.51851851851852,0)" xlink:href="#ax"/><use transform="matrix(0.04938271604938272,0,0,0.04938271604938272,51.308641975308646,0)" xlink:href="#ag"/><use transform="matrix(0.04938271604938272,0,0,0.04938271604938272,61.18518518518519,0)" xlink:href="#ay"/></g><linearGradient gradientUnits="userSpaceOnUse" id="u" x1="1040" y1="200" x2="1120" y2="120"><stop offset="0%" stop-color="#c8511b"/><stop offset="100%" stop-color="#f90"/></linearGradient><path d="M233-177c-1 41-23 64-60 70L243 0h-38l-65-103H63V0H30v-248c88 3 205-21 203 71zM63-129c60-2 137 13 137-47 0-61-80-42-137-45v92" id="az"/><path d="M232-93c-1 65-40 97-104 97C67 4 28-28 28-90v-158h33c8 89-33 224 67 224 102 0 64-133 71-224h33v155" id="aA"/><path d="M30-248c118-7 216 8 213 122C240-48 200 0 122 0H30v-248zM63-27c89 8 146-16 146-99s-60-101-146-95v194" id="aB"/><g id="v"><use transform="matrix(0.04938271604938272,0,0,0.04938271604938272,0,0)" xlink:href="#am"/><use transform="matrix(0.04938271604938272,0,0,0.04938271604938272,12.790123456790125,0)" xlink:href="#az"/><use transform="matrix(0.04938271604938272,0,0,0.04938271604938272,25.58024691358025,0)" xlink:href="#aA"/><use transform="matrix(0.04938271604938272,0,0,0.04938271604938272,38.370370370370374,0)" xlink:href="#aB"/></g><g id="w"><use transform="matrix(0.04938271604938272,0,0,0.04938271604938272,0,0)" xlink:href="#aq"/><use transform="matrix(0.04938271604938272,0,0,0.04938271604938272,9.876543209876544,0)" xlink:href="#ag"/><use transform="matrix(0.04938271604938272,0,0,0.04938271604938272,19.75308641975309,0)" xlink:href="#ar"/><use transform="matrix(0.04938271604938272,0,0,0.04938271604938272,34.51851851851852,0)" xlink:href="#an"/><use transform="matrix(0.04938271604938272,0,0,0.04938271604938272,44.39506172839506,0)" xlink:href="#ab"/><use transform="matrix(0.04938271604938272,0,0,0.04938271604938272,54.27160493827161,0)" xlink:href="#ag"/><use transform="matrix(0.04938271604938272,0,0,0.04938271604938272,64.14814814814815,0)" xlink:href="#Y"/></g><g id="x"><use transform="matrix(0.04938271604938272,0,0,0.04938271604938272,0,0)" xlink:href="#aA"/><use transform="matrix(0.04938271604938272,0,0,0.04938271604938272,12.790123456790125,0)" xlink:href="#Y"/><use transform="matrix(0.04938271604938272,0,0,0.04938271604938272,21.679012345679013,0)" xlink:href="#U"/><use transform="matrix(0.04938271604938272,0,0,0.04938271604938272,31.555555555555557,0)" xlink:href="#V"/><use transform="matrix(0.04938271604938272,0,0,0.04938271604938272,37.4320987654321,0)" xlink:href="#Y"/></g><g id="y"><use transform="matrix(0.04938271604938272,0,0,0.04938271604938272,0,0)" xlink:href="#ac"/><use transform="matrix(0.04938271604938272,0,0,0.04938271604938272,11.851851851851853,0)" xlink:href="#ad"/><use transform="matrix(0.04938271604938272,0,0,0.04938271604938272,21.7283950617284,0)" xlink:href="#ad"/><use transform="matrix(0.04938271604938272,0,0,0.04938271604938272,31.60493827160494,0)" xlink:href="#X"/><use transform="matrix(0.04938271604938272,0,0,0.04938271604938272,35.50617283950618,0)" xlink:href="#ae"/><use transform="matrix(0.04938271604938272,0,0,0.04938271604938272,39.40740740740741,0)" xlink:href="#af"/><use transform="matrix(0.04938271604938272,0,0,0.04938271604938272,48.296296296296305,0)" xlink:href="#ag"/><use transform="matrix(0.04938271604938272,0,0,0.04938271604938272,58.17283950617284,0)" xlink:href="#ah"/><use transform="matrix(0.04938271604938272,0,0,0.04938271604938272,63.111111111111114,0)" xlink:href="#ae"/><use transform="matrix(0.04938271604938272,0,0,0.04938271604938272,67.01234567901236,0)" xlink:href="#aa"/><use transform="matrix(0.04938271604938272,0,0,0.04938271604938272,76.8888888888889,0)" xlink:href="#ai"/></g><g id="z"><use transform="matrix(0.04938271604938272,0,0,0.04938271604938272,0,0)" xlink:href="#aq"/><use transform="matrix(0.04938271604938272,0,0,0.04938271604938272,9.876543209876544,0)" xlink:href="#aa"/><use transform="matrix(0.04938271604938272,0,0,0.04938271604938272,19.75308641975309,0)" xlink:href="#ag"/><use transform="matrix(0.04938271604938272,0,0,0.04938271604938272,29.629629629629633,0)" xlink:href="#ab"/></g><path d="M160-131c35 5 61 23 61 61C221 17 115-2 30 0v-248c76 3 177-17 177 60 0 33-19 50-47 57zm-97-11c50-1 110 9 110-42 0-47-63-36-110-37v79zm0 115c55-2 124 14 124-45 0-56-70-42-124-44v89" id="aC"/><g id="A"><use transform="matrix(0.04938271604938272,0,0,0.04938271604938272,0,0)" xlink:href="#aC"/><use transform="matrix(0.04938271604938272,0,0,0.04938271604938272,11.851851851851853,0)" xlink:href="#ag"/><use transform="matrix(0.04938271604938272,0,0,0.04938271604938272,21.7283950617284,0)" xlink:href="#X"/><use transform="matrix(0.04938271604938272,0,0,0.04938271604938272,25.629629629629633,0)" xlink:href="#ag"/><use transform="matrix(0.04938271604938272,0,0,0.04938271604938272,35.50617283950618,0)" xlink:href="#ai"/><use transform="matrix(0.04938271604938272,0,0,0.04938271604938272,45.38271604938272,0)" xlink:href="#af"/><use transform="matrix(0.04938271604938272,0,0,0.04938271604938272,54.27160493827161,0)" xlink:href="#U"/><use transform="matrix(0.04938271604938272,0,0,0.04938271604938272,64.14814814814815,0)" xlink:href="#V"/></g><linearGradient gradientUnits="userSpaceOnUse" id="B" x1="520" y1="120" x2="600" y2="40"><stop offset="0%" stop-color="#c8511b"/><stop offset="100%" stop-color="#f90"/></linearGradient><path d="M109-170H84l-4-78h32zm-65 0H19l-4-78h33" id="aD"/><g id="C"><use transform="matrix(0.04938271604938272,0,0,0.04938271604938272,0,0)" xlink:href="#aD"/><use transform="matrix(0.04938271604938272,0,0,0.04938271604938272,6.271604938271605,0)" xlink:href="#aC"/><use transform="matrix(0.04938271604938272,0,0,0.04938271604938272,18.12345679012346,0)" xlink:href="#X"/><use transform="matrix(0.04938271604938272,0,0,0.04938271604938272,22.024691358024693,0)" xlink:href="#ak"/><use transform="matrix(0.04938271604938272,0,0,0.04938271604938272,31.901234567901238,0)" xlink:href="#U"/><use transform="matrix(0.04938271604938272,0,0,0.04938271604938272,41.777777777777786,0)" xlink:href="#aD"/></g><g id="D"><use transform="matrix(0.04938271604938272,0,0,0.04938271604938272,0,0)" xlink:href="#as"/><use transform="matrix(0.04938271604938272,0,0,0.04938271604938272,10.814814814814815,0)" xlink:href="#ag"/><use transform="matrix(0.04938271604938272,0,0,0.04938271604938272,20.69135802469136,0)" xlink:href="#V"/><use transform="matrix(0.04938271604938272,0,0,0.04938271604938272,26.567901234567902,0)" xlink:href="#ao"/><use transform="matrix(0.04938271604938272,0,0,0.04938271604938272,36.44444444444445,0)" xlink:href="#ag"/><use transform="matrix(0.04938271604938272,0,0,0.04938271604938272,46.320987654320994,0)" xlink:href="#ah"/><use transform="matrix(0.04938271604938272,0,0,0.04938271604938272,51.25925925925927,0)" xlink:href="#U"/></g><g id="E"><use transform="matrix(0.04938271604938272,0,0,0.04938271604938272,0,0)" xlink:href="#am"/><use transform="matrix(0.04938271604938272,0,0,0.04938271604938272,12.790123456790125,0)" xlink:href="#aa"/><use transform="matrix(0.04938271604938272,0,0,0.04938271604938272,22.66666666666667,0)" xlink:href="#ai"/><use transform="matrix(0.04938271604938272,0,0,0.04938271604938272,32.543209876543216,0)" xlink:href="#ah"/><use transform="matrix(0.04938271604938272,0,0,0.04938271604938272,37.48148148148149,0)" xlink:href="#ag"/><use transform="matrix(0.04938271604938272,0,0,0.04938271604938272,47.35802469135803,0)" xlink:href="#ae"/><use transform="matrix(0.04938271604938272,0,0,0.04938271604938272,51.25925925925927,0)" xlink:href="#ai"/><use transform="matrix(0.04938271604938272,0,0,0.04938271604938272,61.13580246913581,0)" xlink:href="#U"/><use transform="matrix(0.04938271604938272,0,0,0.04938271604938272,71.01234567901236,0)" xlink:href="#V"/></g><linearGradient gradientUnits="userSpaceOnUse" id="F" x1="520" y1="280" x2="600" y2="200"><stop offset="0%" stop-color="#c8511b"/><stop offset="100%" stop-color="#f90"/></linearGradient><g id="G"><use transform="matrix(0.04938271604938272,0,0,0.04938271604938272,0,0)" xlink:href="#aD"/><use transform="matrix(0.04938271604938272,0,0,0.04938271604938272,6.271604938271605,0)" xlink:href="#ap"/><use transform="matrix(0.04938271604938272,0,0,0.04938271604938272,20.098765432098766,0)" xlink:href="#V"/><use transform="matrix(0.04938271604938272,0,0,0.04938271604938272,25.97530864197531,0)" xlink:href="#U"/><use transform="matrix(0.04938271604938272,0,0,0.04938271604938272,35.851851851851855,0)" xlink:href="#U"/><use transform="matrix(0.04938271604938272,0,0,0.04938271604938272,45.7283950617284,0)" xlink:href="#ai"/><use transform="matrix(0.04938271604938272,0,0,0.04938271604938272,55.604938271604944,0)" xlink:href="#aD"/></g><g id="H"><use transform="matrix(0.04938271604938272,0,0,0.04938271604938272,0,0)" xlink:href="#aj"/><use transform="matrix(0.04938271604938272,0,0,0.04938271604938272,11.851851851851853,0)" xlink:href="#al"/><use transform="matrix(0.04938271604938272,0,0,0.04938271604938272,23.703703703703706,0)" xlink:href="#am"/></g><path d="M30 0v-248h187v28H63v79h144v27H63v87h162V0H30" id="aE"/><g id="I"><use transform="matrix(0.04938271604938272,0,0,0.04938271604938272,0,0)" xlink:href="#aE"/><use transform="matrix(0.04938271604938272,0,0,0.04938271604938272,11.851851851851853,0)" xlink:href="#ai"/><use transform="matrix(0.04938271604938272,0,0,0.04938271604938272,21.7283950617284,0)" xlink:href="#ab"/><use transform="matrix(0.04938271604938272,0,0,0.04938271604938272,31.60493827160494,0)" xlink:href="#ad"/><use transform="matrix(0.04938271604938272,0,0,0.04938271604938272,41.48148148148149,0)" xlink:href="#aa"/><use transform="matrix(0.04938271604938272,0,0,0.04938271604938272,51.35802469135803,0)" xlink:href="#ae"/><use transform="matrix(0.04938271604938272,0,0,0.04938271604938272,55.25925925925927,0)" xlink:href="#ai"/><use transform="matrix(0.04938271604938272,0,0,0.04938271604938272,65.13580246913581,0)" xlink:href="#ah"/></g><g id="J"><use transform="matrix(0.04938271604938272,0,0,0.04938271604938272,0,0)" xlink:href="#aj"/><use transform="matrix(0.04938271604938272,0,0,0.04938271604938272,11.851851851851853,0)" xlink:href="#al"/><use transform="matrix(0.04938271604938272,0,0,0.04938271604938272,23.703703703703706,0)" xlink:href="#am"/></g><g id="K"><use transform="matrix(0.04938271604938272,0,0,0.04938271604938272,0,0)" xlink:href="#aw"/><use transform="matrix(0.04938271604938272,0,0,0.04938271604938272,4.938271604938272,0)" xlink:href="#ai"/><use transform="matrix(0.04938271604938272,0,0,0.04938271604938272,14.814814814814817,0)" xlink:href="#ah"/><use transform="matrix(0.04938271604938272,0,0,0.04938271604938272,19.75308641975309,0)" xlink:href="#U"/><use transform="matrix(0.04938271604938272,0,0,0.04938271604938272,29.629629629629633,0)" xlink:href="#V"/><use transform="matrix(0.04938271604938272,0,0,0.04938271604938272,35.50617283950618,0)" xlink:href="#ai"/><use transform="matrix(0.04938271604938272,0,0,0.04938271604938272,45.38271604938272,0)" xlink:href="#U"/><use transform="matrix(0.04938271604938272,0,0,0.04938271604938272,55.25925925925927,0)" xlink:href="#ah"/></g><g id="L"><use transform="matrix(0.04938271604938272,0,0,0.04938271604938272,0,0)" xlink:href="#ap"/><use transform="matrix(0.04938271604938272,0,0,0.04938271604938272,13.827160493827162,0)" xlink:href="#ag"/><use transform="matrix(0.04938271604938272,0,0,0.04938271604938272,23.703703703703706,0)" xlink:href="#ah"/><use transform="matrix(0.04938271604938272,0,0,0.04938271604938272,28.641975308641978,0)" xlink:href="#U"/><use transform="matrix(0.04938271604938272,0,0,0.04938271604938272,38.51851851851852,0)" xlink:href="#ax"/><use transform="matrix(0.04938271604938272,0,0,0.04938271604938272,51.308641975308646,0)" xlink:href="#ag"/><use transform="matrix(0.04938271604938272,0,0,0.04938271604938272,61.18518518518519,0)" xlink:href="#ay"/></g><linearGradient gradientUnits="userSpaceOnUse" id="M" x1="780" y1="600" x2="860" y2="520"><stop offset="0%" stop-color="#2e27ad"/><stop offset="100%" stop-color="#527fff"/></linearGradient><g id="N"><use transform="matrix(0.04938271604938272,0,0,0.04938271604938272,0,0)" xlink:href="#aE"/><use transform="matrix(0.04938271604938272,0,0,0.04938271604938272,11.851851851851853,0)" xlink:href="#ai"/><use transform="matrix(0.04938271604938272,0,0,0.04938271604938272,21.7283950617284,0)" xlink:href="#ah"/><use transform="matrix(0.04938271604938272,0,0,0.04938271604938272,26.666666666666668,0)" xlink:href="#V"/><use transform="matrix(0.04938271604938272,0,0,0.04938271604938272,32.543209876543216,0)" xlink:href="#ae"/><use transform="matrix(0.04938271604938272,0,0,0.04938271604938272,36.44444444444445,0)" xlink:href="#U"/><use transform="matrix(0.04938271604938272,0,0,0.04938271604938272,46.320987654320994,0)" xlink:href="#Y"/></g><g id="O"><use transform="matrix(0.04938271604938272,0,0,0.04938271604938272,0,0)" xlink:href="#Z"/><use transform="matrix(0.04938271604938272,0,0,0.04938271604938272,8.839506172839506,0)" xlink:href="#ag"/><use transform="matrix(0.04938271604938272,0,0,0.04938271604938272,18.71604938271605,0)" xlink:href="#an"/><use transform="matrix(0.04938271604938272,0,0,0.04938271604938272,28.592592592592595,0)" xlink:href="#X"/><use transform="matrix(0.04938271604938272,0,0,0.04938271604938272,32.49382716049383,0)" xlink:href="#U"/></g><g id="P"><use transform="matrix(0.05,0,0,0.05,0,0)" xlink:href="#ac"/><use transform="matrix(0.05,0,0,0.05,12,0)" xlink:href="#af"/><use transform="matrix(0.05,0,0,0.05,21,0)" xlink:href="#af"/><use transform="matrix(0.05,0,0,0.05,30,0)" xlink:href="#U"/><use transform="matrix(0.05,0,0,0.05,40,0)" xlink:href="#Y"/><use transform="matrix(0.05,0,0,0.05,49,0)" xlink:href="#Y"/></g><g id="Q"><use transform="matrix(0.05,0,0,0.05,0,0)" xlink:href="#aa"/><use transform="matrix(0.05,0,0,0.05,10,0)" xlink:href="#ai"/><use transform="matrix(0.05,0,0,0.05,20,0)" xlink:href="#X"/><use transform="matrix(0.05,0,0,0.05,23.95,0)" xlink:href="#ay"/></g><path d="M101-234c-31-9-42 10-38 44h38v23H63V0H32v-167H5v-23h27c-7-52 17-82 69-68v24" id="aF"/><g id="R"><use transform="matrix(0.05,0,0,0.05,0,0)" xlink:href="#aF"/><use transform="matrix(0.05,0,0,0.05,5,0)" xlink:href="#V"/><use transform="matrix(0.05,0,0,0.05,10.95,0)" xlink:href="#aa"/><use transform="matrix(0.05,0,0,0.05,20.95,0)" xlink:href="#ar"/></g><g id="S"><use transform="matrix(0.05,0,0,0.05,0,0)" xlink:href="#aj"/><use transform="matrix(0.05,0,0,0.05,12,0)" xlink:href="#al"/><use transform="matrix(0.05,0,0,0.05,24,0)" xlink:href="#am"/><use transform="matrix(0.05,0,0,0.05,36.95,0)" xlink:href="#aE"/></g></defs></g></svg>